<svg version="1.1" xmlns="http://www.w3.org/2000/svg" viewBox="0 0 1309 674.5" width="1309" height="674.5">
  <!-- svg-source:excalidraw -->
  
  <defs>
    <style class="style-fonts">
      @font-face {
        font-family: "Virgil";
        src: url("https://excalidraw.com/Virgil.woff2");
      }
      @font-face {
        font-family: "Cascadia";
        src: url("https://excalidraw.com/Cascadia.woff2");
      }
      @font-face {
        font-family: "Assistant";
        src: url("https://excalidraw.com/Assistant-Regular.woff2");
      }
    </style>
    
  </defs>
  <rect x="0" y="0" width="1309" height="674.5" fill="#ffffff"></rect><g transform="translate(479 10) rotate(0 188.0885009765625 39.90813161491286)"><text x="0" y="27.967618635730936" font-family="Virgil, Segoe UI Emoji" font-size="31.926505291930287px" fill="#1e1e1e" text-anchor="start" style="white-space: pre;" direction="ltr" dominant-baseline="alphabetic">Fetcher module workflow</text><text x="0" y="67.87575025064379" font-family="Virgil, Segoe UI Emoji" font-size="31.926505291930287px" fill="#1e1e1e" text-anchor="start" style="white-space: pre;" direction="ltr" dominant-baseline="alphabetic"></text></g><g stroke-linecap="round" transform="translate(507 561.5) rotate(0 61 51.5)"><path d="M25.75 0 C41.67 -2.2, 59.09 0.62, 96.25 0 M25.75 0 C50.38 0.21, 74.38 1.22, 96.25 0 M96.25 0 C111.97 -0.65, 121.52 7.49, 122 25.75 M96.25 0 C112.61 1.42, 121.73 6.41, 122 25.75 M122 25.75 C123.4 37.48, 120.24 50.74, 122 77.25 M122 25.75 C121.77 44.61, 122.72 61.26, 122 77.25 M122 77.25 C123.54 93.23, 113.71 103.64, 96.25 103 M122 77.25 C123.48 96.31, 114.02 101.42, 96.25 103 M96.25 103 C80.1 105.15, 66.55 101.72, 25.75 103 M96.25 103 C69.42 103.69, 44.31 102.1, 25.75 103 M25.75 103 C9.29 103.57, -1.46 92.6, 0 77.25 M25.75 103 C10.52 102.39, 0.35 93.51, 0 77.25 M0 77.25 C-1.81 65.71, -0.06 49.13, 0 25.75 M0 77.25 C-0.24 62.22, -0.44 47.6, 0 25.75 M0 25.75 C-0.02 9.83, 8.08 -1.22, 25.75 0 M0 25.75 C1.94 9.62, 9.71 -0.83, 25.75 0" stroke="#1e1e1e" stroke-width="2" fill="none"></path></g><g transform="translate(512.2000579833984 588) rotate(0 55.79994201660156 25)"><text x="55.79994201660156" y="17.52" font-family="Virgil, Segoe UI Emoji" font-size="20px" fill="#1e1e1e" text-anchor="middle" style="white-space: pre;" direction="ltr" dominant-baseline="alphabetic">_initialise_</text><text x="55.79994201660156" y="42.519999999999996" font-family="Virgil, Segoe UI Emoji" font-size="20px" fill="#1e1e1e" text-anchor="middle" style="white-space: pre;" direction="ltr" dominant-baseline="alphabetic">data</text></g><g stroke-linecap="round" transform="translate(704 559.5) rotate(0 77.5 51.5)"><path d="M25.75 0 C47.69 -0.51, 68.1 1.43, 129.25 0 M25.75 0 C65.83 -1.78, 105.56 -1.08, 129.25 0 M129.25 0 C147.53 -0.76, 154.57 7.41, 155 25.75 M129.25 0 C146.39 -0.02, 156.43 8.01, 155 25.75 M155 25.75 C156.41 37.34, 153.9 51.78, 155 77.25 M155 25.75 C154.48 41.95, 154.87 59.84, 155 77.25 M155 77.25 C153.44 93.55, 145.51 104.27, 129.25 103 M155 77.25 C155.75 93.63, 148.07 102.95, 129.25 103 M129.25 103 C104.08 103.99, 76.63 103.46, 25.75 103 M129.25 103 C91.61 103.54, 54.88 103.08, 25.75 103 M25.75 103 C10.03 102.3, 0.49 95.1, 0 77.25 M25.75 103 C10.45 102.82, -0.57 93.82, 0 77.25 M0 77.25 C-0.9 58.1, -1.61 40.68, 0 25.75 M0 77.25 C1.2 61.9, 0.42 46.25, 0 25.75 M0 25.75 C1.14 7.97, 9.36 -0.7, 25.75 0 M0 25.75 C-2.07 7.57, 7.86 1.83, 25.75 0" stroke="#1e1e1e" stroke-width="2" fill="none"></path></g><g transform="translate(714.3600540161133 598.5) rotate(0 67.13994598388672 12.5)"><text x="67.13994598388672" y="17.52" font-family="Virgil, Segoe UI Emoji" font-size="20px" fill="#1e1e1e" text-anchor="middle" style="white-space: pre;" direction="ltr" dominant-baseline="alphabetic">_fetch_data</text></g><g stroke-linecap="round" transform="translate(609 143.5) rotate(0 74 51.5)"><path d="M25.75 0 C63.25 -2.7, 100.03 -1.31, 122.25 0 M25.75 0 C59.49 0.2, 94.4 0.83, 122.25 0 M122.25 0 C138.92 -1.22, 149.69 9.48, 148 25.75 M122.25 0 C140.54 -0.83, 146.24 10.2, 148 25.75 M148 25.75 C146.69 41.44, 147.49 60.51, 148 77.25 M148 25.75 C148.41 37.52, 147.43 49.36, 148 77.25 M148 77.25 C147.96 93.5, 139.06 103.92, 122.25 103 M148 77.25 C149.27 95, 139.35 102.98, 122.25 103 M122.25 103 C86.52 103.11, 52.62 102.19, 25.75 103 M122.25 103 C86.68 104.05, 50.35 102.99, 25.75 103 M25.75 103 C8.07 103.92, 0.22 95.62, 0 77.25 M25.75 103 C7.61 101.47, -1.79 93.35, 0 77.25 M0 77.25 C1.88 61.6, 0.32 45.33, 0 25.75 M0 77.25 C-0.19 57.97, -0.28 40.18, 0 25.75 M0 25.75 C1.59 9.75, 10.18 1.84, 25.75 0 M0 25.75 C-1.54 10.22, 8.07 0.23, 25.75 0" stroke="#1e1e1e" stroke-width="2" fill="none"></path></g><g transform="translate(618.1300506591797 170) rotate(0 64.86994934082031 25)"><text x="64.86994934082031" y="17.52" font-family="Virgil, Segoe UI Emoji" font-size="20px" fill="#1e1e1e" text-anchor="middle" style="white-space: pre;" direction="ltr" dominant-baseline="alphabetic">_remove_nan</text><text x="64.86994934082031" y="42.519999999999996" font-family="Virgil, Segoe UI Emoji" font-size="20px" fill="#1e1e1e" text-anchor="middle" style="white-space: pre;" direction="ltr" dominant-baseline="alphabetic">_rows</text></g><g stroke-linecap="round" transform="translate(10 283) rotate(0 58 40)"><path d="M20 0 C38.04 0.99, 56.59 1.15, 96 0 M20 0 C38.51 -1.04, 57.43 0.5, 96 0 M96 0 C111.26 -1.62, 115.74 4.79, 116 20 M96 0 C109.82 0.2, 115.13 6.83, 116 20 M116 20 C115.13 31.65, 114.51 45.64, 116 60 M116 20 C115.18 31.22, 116.04 41.2, 116 60 M116 60 C115.6 74.63, 109.72 78.29, 96 80 M116 60 C117.48 71.82, 109.16 79.02, 96 80 M96 80 C66.34 79.86, 38.18 79.64, 20 80 M96 80 C66.61 79.04, 39.1 78.77, 20 80 M20 80 C6.25 78.43, -1.19 73.1, 0 60 M20 80 C8.09 79.48, -0.43 75.12, 0 60 M0 60 C-1.79 47.07, 1.34 39.39, 0 20 M0 60 C0.73 49.93, 1.2 42.37, 0 20 M0 20 C0.16 5.38, 5.82 0.25, 20 0 M0 20 C-1.63 8.83, 8.27 -1.66, 20 0" stroke="#1e1e1e" stroke-width="2" fill="none"></path></g><g transform="translate(31.4100341796875 310.5) rotate(0 36.5899658203125 12.5)"><text x="36.5899658203125" y="17.52" font-family="Virgil, Segoe UI Emoji" font-size="20px" fill="#1e1e1e" text-anchor="middle" style="white-space: pre;" direction="ltr" dominant-baseline="alphabetic">Fetcher</text></g><g stroke-linecap="round" transform="translate(257 155) rotate(0 51.5 32)"><path d="M52 -0.02 C61.01 -0.52, 72.53 2.21, 80.38 5.37 C88.23 8.53, 95.55 13.74, 99.09 18.95 C102.63 24.16, 103.01 31, 101.61 36.63 C100.21 42.26, 96.62 48.34, 90.68 52.74 C84.74 57.13, 74.91 61.38, 65.99 63.01 C57.08 64.64, 46.07 64.38, 37.19 62.5 C28.31 60.62, 18.72 55.99, 12.7 51.71 C6.68 47.44, 2.21 42.47, 1.05 36.84 C-0.1 31.21, 1.87 23.17, 5.76 17.95 C9.65 12.74, 15.6 8.51, 24.38 5.57 C33.16 2.64, 51.66 1.13, 58.43 0.36 C65.21 -0.42, 65.03 0.31, 65.05 0.92 M71.62 3.68 C80.07 5.33, 87.71 9.89, 92.86 14.58 C98.01 19.26, 101.98 26.01, 102.53 31.78 C103.08 37.54, 101.09 44.12, 96.15 49.16 C91.21 54.2, 81.05 59.41, 72.9 62.01 C64.76 64.61, 56.31 65.82, 47.27 64.74 C38.23 63.66, 26.22 59.4, 18.66 55.53 C11.1 51.67, 4.63 46.85, 1.91 41.55 C-0.8 36.24, -0.24 29.12, 2.38 23.7 C5 18.29, 11 12.93, 17.62 9.05 C24.24 5.17, 33.03 1.46, 42.12 0.4 C51.21 -0.66, 67.12 2.29, 72.13 2.7 C77.14 3.1, 72.81 2.26, 72.19 2.82" stroke="#1e1e1e" stroke-width="2" fill="none"></path></g><g transform="translate(281.0840312864709 174.37258300203047) rotate(0 27.499969482421875 12.5)"><text x="27.499969482421875" y="17.52" font-family="Virgil, Segoe UI Emoji" font-size="20px" fill="#1e1e1e" text-anchor="middle" style="white-space: pre;" direction="ltr" dominant-baseline="alphabetic">ticker</text></g><g stroke-linecap="round" transform="translate(257 278) rotate(0 69.5 42.5)"><path d="M79.93 0.65 C90.34 1.16, 103.1 5.48, 111.88 9.36 C120.67 13.25, 128.07 18.12, 132.64 23.96 C137.2 29.79, 139.58 37.69, 139.25 44.37 C138.92 51.06, 136.16 58.41, 130.64 64.06 C125.13 69.72, 115.55 74.73, 106.15 78.3 C96.76 81.88, 85.02 85.01, 74.27 85.51 C63.51 86.01, 51.24 84.04, 41.63 81.3 C32.02 78.56, 23.25 74.1, 16.62 69.08 C9.98 64.06, 4.28 57.61, 1.82 51.18 C-0.65 44.76, -0.99 36.9, 1.85 30.51 C4.7 24.11, 11.21 17.57, 18.87 12.81 C26.53 8.05, 35.24 3.71, 47.82 1.95 C60.4 0.2, 84.83 1.54, 94.33 2.28 C103.84 3.02, 105.53 5.83, 104.86 6.39 M77.85 1.63 C88.17 1.53, 99.92 3.54, 108.81 7.16 C117.7 10.78, 126.09 17.42, 131.18 23.35 C136.27 29.28, 139.34 36.29, 139.36 42.75 C139.39 49.2, 136.31 56.27, 131.34 62.09 C126.36 67.92, 118.7 73.83, 109.52 77.7 C100.34 81.58, 87 84.73, 76.27 85.33 C65.53 85.93, 54.98 83.73, 45.12 81.29 C35.25 78.84, 24.05 75.46, 17.1 70.66 C10.15 65.86, 5.94 58.76, 3.41 52.48 C0.87 46.2, -0.48 39.57, 1.9 32.99 C4.28 26.41, 10.66 17.89, 17.71 12.98 C24.75 8.08, 33.94 5.47, 44.15 3.58 C54.37 1.68, 73.26 1.8, 78.99 1.61 C84.72 1.43, 78.85 1.9, 78.53 2.45" stroke="#1e1e1e" stroke-width="2" fill="none"></path></g><g transform="translate(283.0061183803865 295.4479617995717) rotate(0 43.34996032714844 25)"><text x="43.34996032714844" y="17.52" font-family="Virgil, Segoe UI Emoji" font-size="20px" fill="#1e1e1e" text-anchor="middle" style="white-space: pre;" direction="ltr" dominant-baseline="alphabetic">current_</text><text x="43.34996032714844" y="42.519999999999996" font-family="Virgil, Segoe UI Emoji" font-size="20px" fill="#1e1e1e" text-anchor="middle" style="white-space: pre;" direction="ltr" dominant-baseline="alphabetic">data</text></g><g stroke-linecap="round" transform="translate(243 404) rotate(0 57.5 44)"><path d="M83.05 4.68 C91.82 7.1, 99.67 12.85, 105.07 18.69 C110.46 24.52, 114.72 32.23, 115.42 39.69 C116.12 47.14, 113.42 56.65, 109.25 63.42 C105.08 70.18, 98.24 76.3, 90.4 80.27 C82.57 84.24, 71.9 86.54, 62.25 87.22 C52.61 87.89, 41.16 87.26, 32.56 84.32 C23.95 81.37, 16.14 75.63, 10.63 69.55 C5.12 63.46, 0.36 55.04, -0.5 47.8 C-1.36 40.56, 1.11 32.84, 5.46 26.09 C9.8 19.33, 17.6 11.5, 25.59 7.29 C33.57 3.09, 42.79 0.79, 53.36 0.86 C63.94 0.92, 82.18 5.87, 89.03 7.69 C95.89 9.51, 94.91 11.19, 94.5 11.78 M45.52 0.33 C54.12 -2.14, 65.12 -1.15, 74.07 1.12 C83.02 3.38, 92.49 8.31, 99.21 13.91 C105.93 19.51, 112.21 27.63, 114.37 34.71 C116.53 41.79, 115.43 49.44, 112.19 56.38 C108.94 63.33, 101.9 71.07, 94.89 76.38 C87.87 81.7, 79.06 86.6, 70.11 88.27 C61.16 89.93, 50.19 88.68, 41.2 86.37 C32.21 84.06, 23.03 79.85, 16.17 74.39 C9.31 68.94, 2.08 61.04, 0.04 53.63 C-1.99 46.22, 1.03 36.78, 3.95 29.94 C6.88 23.1, 10.88 17.16, 17.59 12.58 C24.31 8, 39.53 4.09, 44.25 2.45 C48.96 0.81, 45.44 2.12, 45.88 2.75" stroke="#1e1e1e" stroke-width="2" fill="none"></path></g><g transform="translate(267.4013805285509 422.8873016277919) rotate(0 32.93997955322263 25)"><text x="32.939979553222656" y="17.52" font-family="Virgil, Segoe UI Emoji" font-size="20px" fill="#1e1e1e" text-anchor="middle" style="white-space: pre;" direction="ltr" dominant-baseline="alphabetic">data_</text><text x="32.939979553222656" y="42.519999999999996" font-family="Virgil, Segoe UI Emoji" font-size="20px" fill="#1e1e1e" text-anchor="middle" style="white-space: pre;" direction="ltr" dominant-baseline="alphabetic">lock</text></g><g stroke-linecap="round"><g transform="translate(124 291) rotate(0 65.5 -47)"><path d="M-0.28 -0.45 C21.47 -16.44, 109.62 -79.6, 131.31 -95.08 M1.77 -1.73 C23.33 -17.69, 108.79 -78.51, 130.52 -94.12" stroke="#1e1e1e" stroke-width="2" fill="none"></path></g></g><mask></mask><g stroke-linecap="round"><g transform="translate(125 320) rotate(0 65 -2)"><path d="M0 0.98 C21.72 0.32, 109.47 -3.45, 131.01 -4.11 M-1.46 0.45 C20.14 -0.01, 108.39 -1.76, 130.59 -2.62" stroke="#1e1e1e" stroke-width="2" fill="none"></path></g></g><mask></mask><g stroke-linecap="round"><g transform="translate(121 356) rotate(0 59.5 45)"><path d="M-0.82 -0.06 C18.98 14.7, 99.93 73.7, 119.9 88.82 M0.96 -1.14 C20.57 13.71, 99.87 74.77, 119.42 89.74" stroke="#1e1e1e" stroke-width="2" fill="none"></path></g></g><mask></mask><g stroke-linecap="round"><g transform="translate(66 367) rotate(0 92.5 123)"><path d="M-0.74 -1.14 C1.11 36.99, -20.64 187.14, 10.42 228.41 C41.48 269.68, 156.62 243.57, 185.62 246.46 M1.08 0.87 C3.38 39.19, -17.86 189.06, 12.83 229.64 C43.51 270.22, 156.59 241.52, 185.18 244.35" stroke="#1e1e1e" stroke-width="2" fill="none"></path></g><g transform="translate(66 367) rotate(0 92.5 123)"><path d="M162.38 254.6 C166.08 251.27, 172.57 250.76, 185.18 244.35 M162.38 254.6 C169.55 250.9, 176.94 248.25, 185.18 244.35" stroke="#1e1e1e" stroke-width="2" fill="none"></path></g><g transform="translate(66 367) rotate(0 92.5 123)"><path d="M161.12 237.55 C165.08 238.39, 171.88 242.05, 185.18 244.35 M161.12 237.55 C168.63 239.61, 176.45 242.73, 185.18 244.35" stroke="#1e1e1e" stroke-width="2" fill="none"></path></g></g><mask></mask><g stroke-linecap="round"><g transform="translate(404 608) rotate(0 47 0.5)"><path d="M0.96 0.05 C16.77 0.31, 78.58 1.34, 93.97 1.65 M0.01 -0.96 C15.73 -1.06, 77.64 -0.3, 93.01 -0.14" stroke="#1e1e1e" stroke-width="2" fill="none"></path></g><g transform="translate(404 608) rotate(0 47 0.5)"><path d="M69.42 8.15 C74.91 6.02, 81.3 3.05, 93.01 -0.14 M69.42 8.15 C78.62 5.67, 86.54 2.01, 93.01 -0.14" stroke="#1e1e1e" stroke-width="2" fill="none"></path></g><g transform="translate(404 608) rotate(0 47 0.5)"><path d="M69.62 -8.95 C75.07 -7.17, 81.42 -6.22, 93.01 -0.14 M69.62 -8.95 C78.72 -5, 86.57 -2.23, 93.01 -0.14" stroke="#1e1e1e" stroke-width="2" fill="none"></path></g></g><mask></mask><g stroke-linecap="round"><g transform="translate(633 613) rotate(0 31.5 -0.5)"><path d="M-1.13 -0.18 C9.55 -0.24, 52.99 -0.26, 63.67 -0.57 M0.47 -1.32 C11.1 -1.73, 52.79 -2.47, 63.08 -2.47" stroke="#1e1e1e" stroke-width="2" fill="none"></path></g><g transform="translate(633 613) rotate(0 31.5 -0.5)"><path d="M39.68 6.33 C45.55 5.36, 52.72 1.92, 63.08 -2.47 M39.68 6.33 C43.91 4.65, 49.51 2.34, 63.08 -2.47" stroke="#1e1e1e" stroke-width="2" fill="none"></path></g><g transform="translate(633 613) rotate(0 31.5 -0.5)"><path d="M39.5 -10.77 C45.39 -7.24, 52.61 -6.18, 63.08 -2.47 M39.5 -10.77 C43.8 -8.83, 49.44 -7.52, 63.08 -2.47" stroke="#1e1e1e" stroke-width="2" fill="none"></path></g></g><mask></mask><g stroke-linecap="round" transform="translate(258 558) rotate(0 71 49)"><path d="M24.5 0 C60.95 1.28, 97.48 1.66, 117.5 0 M24.5 0 C44.59 0.54, 64.61 0.11, 117.5 0 M117.5 0 C132.58 0.74, 141.57 8.07, 142 24.5 M117.5 0 C134.05 -1.09, 143.48 9.47, 142 24.5 M142 24.5 C142.33 38.37, 141.79 51.77, 142 73.5 M142 24.5 C141.25 43.38, 142.37 62.13, 142 73.5 M142 73.5 C141.99 91.54, 134.5 97.11, 117.5 98 M142 73.5 C141.43 90.65, 132.69 96.85, 117.5 98 M117.5 98 C88.57 97.31, 62.63 97.19, 24.5 98 M117.5 98 C90.42 97.01, 63 98.4, 24.5 98 M24.5 98 C9.52 99.35, -1.62 91.65, 0 73.5 M24.5 98 C8.52 95.83, 0.39 87.94, 0 73.5 M0 73.5 C1.79 59.67, 1.29 51.38, 0 24.5 M0 73.5 C-0.92 57.23, 0.72 41.31, 0 24.5 M0 24.5 C-1.86 10.04, 9.56 -0.56, 24.5 0 M0 24.5 C1.08 8.84, 7.73 1.3, 24.5 0" stroke="#1e1e1e" stroke-width="2" fill="none"></path></g><g transform="translate(297.780029296875 594.5) rotate(0 31.219970703125 12.5)"><text x="31.219970703125" y="17.52" font-family="Virgil, Segoe UI Emoji" font-size="20px" fill="#1e1e1e" text-anchor="middle" style="white-space: pre;" direction="ltr" dominant-baseline="alphabetic">_init_</text></g><g stroke-linecap="round" transform="translate(840 257) rotate(0 104.5 60)"><path d="M131.25 15.25 C145.94 24.23, 161.89 34.32, 182.75 45.75 M131.25 15.25 C142.67 22.95, 155.44 30.93, 182.75 45.75 M182.75 45.75 C210.02 60.05, 207.37 60.68, 182.75 76.25 M182.75 45.75 C210.28 60.88, 209.91 62.5, 182.75 76.25 M182.75 76.25 C162.89 85.61, 143.01 97.83, 131.25 104.75 M182.75 76.25 C167.16 85.88, 151.21 94.78, 131.25 104.75 M131.25 104.75 C104.23 118.64, 104.43 118.26, 78.75 104.75 M131.25 104.75 C106.92 119.87, 103.04 119.63, 78.75 104.75 M78.75 104.75 C61.06 96.16, 42.68 84.49, 26.25 76.25 M78.75 104.75 C64.26 97.75, 50.15 88.35, 26.25 76.25 M26.25 76.25 C-1.06 61.13, 0.58 59.95, 26.25 45.75 M26.25 76.25 C-1.99 61.74, -2.22 63.27, 26.25 45.75 M26.25 45.75 C37.66 37.49, 50.45 30.94, 78.75 15.25 M26.25 45.75 C41.31 36.44, 55.73 28.68, 78.75 15.25 M78.75 15.25 C106.47 0.16, 104.52 0.63, 131.25 15.25 M78.75 15.25 C106.48 -0.06, 106.71 -0.48, 131.25 15.25" stroke="#1e1e1e" stroke-width="2" fill="none"></path></g><g transform="translate(902.2800445556641 292) rotate(0 42.46995544433594 25)"><text x="42.46995544433594" y="17.52" font-family="Virgil, Segoe UI Emoji" font-size="20px" fill="#1e1e1e" text-anchor="middle" style="white-space: pre;" direction="ltr" dominant-baseline="alphabetic">Error </text><text x="42.46995544433594" y="42.519999999999996" font-family="Virgil, Segoe UI Emoji" font-size="20px" fill="#1e1e1e" text-anchor="middle" style="white-space: pre;" direction="ltr" dominant-baseline="alphabetic">fetching?</text></g><g mask="url(#mask-ffP9q6J6kT_ZoZ2zejEa8)" stroke-linecap="round"><g transform="translate(881.4207323523881 292.0646512809255) rotate(0 -61.21036617619404 -25.790254232583546)"><path d="M0.31 0.77 C-20.07 -8.01, -102.13 -43.68, -122.74 -52.34 M-0.98 0.13 C-21.51 -8.55, -103.86 -42.29, -123.85 -51.2" stroke="#1e1e1e" stroke-width="2" fill="none"></path></g><g transform="translate(881.4207323523881 292.0646512809255) rotate(0 -61.21036617619404 -25.790254232583546)"><path d="M-98.88 -49.88 C-104.19 -50.68, -113.32 -52, -123.85 -51.2 M-98.88 -49.88 C-107.49 -50.91, -116.25 -49.79, -123.85 -51.2" stroke="#1e1e1e" stroke-width="2" fill="none"></path></g><g transform="translate(881.4207323523881 292.0646512809255) rotate(0 -61.21036617619404 -25.790254232583546)"><path d="M-105.57 -34.14 C-109.16 -39.12, -116.53 -44.59, -123.85 -51.2 M-105.57 -34.14 C-112.09 -40.43, -118.64 -44.53, -123.85 -51.2" stroke="#1e1e1e" stroke-width="2" fill="none"></path></g></g><mask id="mask-ffP9q6J6kT_ZoZ2zejEa8"><rect x="0" y="0" fill="#fff" width="1103.8414647047762" height="443.6451597460926"></rect><rect x="808.2303780780494" y="253.7743970483419" fill="#000" width="23.959976196289062" height="25" opacity="1"></rect></mask><g transform="translate(808.2303780780494 253.77439704834194) rotate(0 11.423048255965227 12.50655039139092)"><text x="11.979988098144531" y="17.52" font-family="Virgil, Segoe UI Emoji" font-size="20px" fill="#1e1e1e" text-anchor="middle" style="white-space: pre;" direction="ltr" dominant-baseline="alphabetic">No</text></g><g stroke-linecap="round"><g transform="translate(607.9526331967855 248.20382592406744) rotate(0 -106.4035358319627 28.32452640766663)"><path d="M0.18 0.47 C-11.96 4.08, -37.13 11.45, -72.45 20.77 C-107.78 30.09, -188.46 50.45, -211.76 56.4 M-1.19 -0.33 C-13.48 3.55, -38.01 12.64, -73.14 22.29 C-108.27 31.95, -188.88 51.72, -211.98 57.59" stroke="#1e1e1e" stroke-width="2" fill="none"></path></g><g transform="translate(607.9526331967855 248.20382592406744) rotate(0 -106.4035358319627 28.32452640766663)"><path d="M-191.26 43.6 C-197.46 49.11, -205.17 54.67, -211.98 57.59 M-191.26 43.6 C-196.43 48.4, -203.58 50.76, -211.98 57.59" stroke="#1e1e1e" stroke-width="2" fill="none"></path></g><g transform="translate(607.9526331967855 248.20382592406744) rotate(0 -106.4035358319627 28.32452640766663)"><path d="M-187.11 60.19 C-194.57 60.19, -203.66 60.24, -211.98 57.59 M-187.11 60.19 C-193.51 60.35, -201.82 58.06, -211.98 57.59" stroke="#1e1e1e" stroke-width="2" fill="none"></path></g></g><mask></mask><g stroke-linecap="round" transform="translate(1136 433) rotate(0 63.5 42.5)"><path d="M21.25 0 C51.41 -2.02, 82.26 0.06, 105.75 0 M21.25 0 C45.08 -1.55, 70.13 0.3, 105.75 0 M105.75 0 C119.01 -1.9, 125.15 6.93, 127 21.25 M105.75 0 C118.52 0.69, 125.66 7.82, 127 21.25 M127 21.25 C126.29 33.1, 126.88 42.18, 127 63.75 M127 21.25 C125.79 31.05, 126.83 41.69, 127 63.75 M127 63.75 C126.45 79.21, 120.41 86.41, 105.75 85 M127 63.75 C126.09 76.22, 120.17 86.69, 105.75 85 M105.75 85 C74.46 86.89, 40.71 84.46, 21.25 85 M105.75 85 C87.68 86.29, 68.11 84.83, 21.25 85 M21.25 85 C6.01 86.58, 0.37 79.4, 0 63.75 M21.25 85 C5.85 85.92, -1.21 76.75, 0 63.75 M0 63.75 C1.05 54.61, 1.35 40.66, 0 21.25 M0 63.75 C-0.33 50.08, 1.29 37.28, 0 21.25 M0 21.25 C-1.2 5.78, 8.51 0.01, 21.25 0 M0 21.25 C0.29 7.41, 5.15 1.9, 21.25 0" stroke="#1e1e1e" stroke-width="2" fill="none"></path></g><g transform="translate(1151.7400360107422 438) rotate(0 47.75996398925781 37.5)"><text x="47.75996398925781" y="17.52" font-family="Virgil, Segoe UI Emoji" font-size="20px" fill="#1e1e1e" text-anchor="middle" style="white-space: pre;" direction="ltr" dominant-baseline="alphabetic">Retry</text><text x="47.75996398925781" y="42.519999999999996" font-family="Virgil, Segoe UI Emoji" font-size="20px" fill="#1e1e1e" text-anchor="middle" style="white-space: pre;" direction="ltr" dominant-baseline="alphabetic">(up to 3 </text><text x="47.75996398925781" y="67.52" font-family="Virgil, Segoe UI Emoji" font-size="20px" fill="#1e1e1e" text-anchor="middle" style="white-space: pre;" direction="ltr" dominant-baseline="alphabetic">times)</text></g><g mask="url(#mask-a9e4OzleP0wLjhcnhDz3T)" stroke-linecap="round"><g transform="translate(994.0604270664119 349.697362449907) rotate(0 69.46978646679406 41.81989472458049)"><path d="M0.82 -0.27 C24.1 13.7, 117.02 70.74, 140.07 84.63 M-0.2 -1.46 C22.98 12.13, 116.61 68.76, 139.72 83.03" stroke="#1e1e1e" stroke-width="2" fill="none"></path></g><g transform="translate(994.0604270664119 349.697362449907) rotate(0 69.46978646679406 41.81989472458049)"><path d="M115.21 78.1 C122.98 81.47, 133.28 81.54, 139.72 83.03 M115.21 78.1 C122.26 80.44, 127.79 81.7, 139.72 83.03" stroke="#1e1e1e" stroke-width="2" fill="none"></path></g><g transform="translate(994.0604270664119 349.697362449907) rotate(0 69.46978646679406 41.81989472458049)"><path d="M124.11 63.5 C129 71.81, 136.32 76.76, 139.72 83.03 M124.11 63.5 C129.03 69.54, 132.28 74.53, 139.72 83.03" stroke="#1e1e1e" stroke-width="2" fill="none"></path></g></g><mask id="mask-a9e4OzleP0wLjhcnhDz3T"><rect x="0" y="0" fill="#fff" width="1233" height="533.337151899068"></rect><rect x="1047.4702312334014" y="379.01725717448755" fill="#000" width="32.119964599609375" height="25" opacity="1"></rect></mask><g transform="translate(1047.4702312334011 379.0172571744875) rotate(0 16.52531582064944 12.264384688660485)"><text x="16.059982299804688" y="17.52" font-family="Virgil, Segoe UI Emoji" font-size="20px" fill="#1e1e1e" text-anchor="middle" style="white-space: pre;" direction="ltr" dominant-baseline="alphabetic">Yes</text></g><g stroke-linecap="round"><g transform="translate(1194.7470612693016 523) rotate(0 -165.37353063465082 48)"><path d="M0.82 0.27 C-5.48 15.84, 18.25 76.97, -37.09 93.11 C-92.43 109.25, -282.27 96.59, -331.22 97.1 M-0.2 -0.63 C-6.66 15.18, 17.64 78.72, -37.7 94.71 C-93.03 110.7, -283.42 94.89, -332.23 95.33" stroke="#1e1e1e" stroke-width="2" fill="none"></path></g><g transform="translate(1194.7470612693016 523) rotate(0 -165.37353063465082 48)"><path d="M-308.45 87.63 C-316.54 91.65, -325.32 92.52, -332.23 95.33 M-308.45 87.63 C-318.2 89.98, -326.61 93.17, -332.23 95.33" stroke="#1e1e1e" stroke-width="2" fill="none"></path></g><g transform="translate(1194.7470612693016 523) rotate(0 -165.37353063465082 48)"><path d="M-309.06 104.72 C-316.89 102.61, -325.45 97.36, -332.23 95.33 M-309.06 104.72 C-318.57 100.38, -326.73 96.88, -332.23 95.33" stroke="#1e1e1e" stroke-width="2" fill="none"></path></g></g><mask></mask><g stroke-linecap="round" transform="translate(856 425) rotate(0 46 35.5)"><path d="M57.5 9 C66.14 14.14, 70.46 19.99, 80.5 27 M57.5 9 C66.29 14.83, 73.23 20.36, 80.5 27 M80.5 27 C91.44 34.3, 91.13 34.45, 80.5 45 M80.5 27 C93.8 37.96, 92.39 36.57, 80.5 45 M80.5 45 C75.6 50.6, 67.88 52.39, 57.5 62 M80.5 45 C73.94 50.22, 66.79 55.15, 57.5 62 M57.5 62 C46.88 71.42, 44.65 70.19, 34.5 62 M57.5 62 C46.77 69.77, 47.99 71.32, 34.5 62 M34.5 62 C27.47 55.87, 18.75 50.36, 11.5 45 M34.5 62 C26.62 56.67, 19.57 51.58, 11.5 45 M11.5 45 C0.71 34.24, 1.28 35.16, 11.5 27 M11.5 45 C1.25 35.13, 1.18 37.56, 11.5 27 M11.5 27 C18.57 21.67, 23.6 15.94, 34.5 9 M11.5 27 C16.43 22.88, 21.28 18.55, 34.5 9 M34.5 9 C44.47 0.02, 46.29 1.48, 57.5 9 M34.5 9 C43.86 1.49, 48.21 0.71, 57.5 9" stroke="#1e1e1e" stroke-width="2" fill="none"></path></g><g transform="translate(885.4600143432617 448.25) rotate(0 16.53998565673828 12.5)"><text x="16.53998565673828" y="17.52" font-family="Virgil, Segoe UI Emoji" font-size="20px" fill="#1e1e1e" text-anchor="middle" style="white-space: pre;" direction="ltr" dominant-baseline="alphabetic">Log</text></g><g stroke-linecap="round"><g transform="translate(811.243223695626 557) rotate(0 33.68251045123043 -36.151968839742324)"><path d="M-0.39 -1.12 C10.75 -13.12, 55.73 -60.72, 66.92 -72.76 M1.6 0.9 C12.54 -10.86, 55.07 -59.21, 65.74 -71.46" stroke="#1e1e1e" stroke-width="2" fill="none"></path></g><g transform="translate(811.243223695626 557) rotate(0 33.68251045123043 -36.151968839742324)"><path d="M56.68 -48.16 C57.72 -55.98, 61.59 -63.41, 65.74 -71.46 M56.68 -48.16 C57.72 -53.98, 61.45 -58.45, 65.74 -71.46" stroke="#1e1e1e" stroke-width="2" fill="none"></path></g><g transform="translate(811.243223695626 557) rotate(0 33.68251045123043 -36.151968839742324)"><path d="M43.82 -59.43 C48.71 -63.77, 56.5 -67.77, 65.74 -71.46 M43.82 -59.43 C47.6 -62.96, 54.06 -65.04, 65.74 -71.46" stroke="#1e1e1e" stroke-width="2" fill="none"></path></g></g><mask></mask><g stroke-linecap="round"><g transform="translate(902.940756106314 425.12943986827395) rotate(0 10.723454458545348 -28.23069001366936)"><path d="M0.42 1.17 C3.95 -8.27, 17.74 -47, 21.11 -56.71 M-0.81 0.75 C2.52 -8.52, 16 -45.83, 19.99 -55.3" stroke="#1e1e1e" stroke-width="2" fill="none"></path></g><g transform="translate(902.940756106314 425.12943986827395) rotate(0 10.723454458545348 -28.23069001366936)"><path d="M19.49 -30.31 C21.6 -38.31, 19.38 -46.52, 19.99 -55.3 M19.49 -30.31 C20.35 -36.43, 20.48 -42.44, 19.99 -55.3" stroke="#1e1e1e" stroke-width="2" fill="none"></path></g><g transform="translate(902.940756106314 425.12943986827395) rotate(0 10.723454458545348 -28.23069001366936)"><path d="M3.54 -36.48 C10.4 -42.7, 12.93 -49.07, 19.99 -55.3 M3.54 -36.48 C8.32 -40.96, 12.42 -45.43, 19.99 -55.3" stroke="#1e1e1e" stroke-width="2" fill="none"></path></g></g><mask></mask><g stroke-linecap="round"><g transform="translate(1193.5805594293515 427) rotate(0 -1.1524542720069348 -55)"><path d="M0.61 0.83 C-0.07 -17.48, -2.45 -91.54, -2.99 -109.97 M-0.53 0.22 C-0.91 -17.87, -0.13 -90.33, -0.64 -108.41" stroke="#1e1e1e" stroke-width="2" fill="none"></path></g><g transform="translate(1193.5805594293515 427) rotate(0 -1.1524542720069348 -55)"><path d="M8.06 -84.97 C6.08 -95.19, 1.36 -103.78, -0.64 -108.41 M8.06 -84.97 C5.1 -91.68, 1.74 -99.86, -0.64 -108.41" stroke="#1e1e1e" stroke-width="2" fill="none"></path></g><g transform="translate(1193.5805594293515 427) rotate(0 -1.1524542720069348 -55)"><path d="M-9.04 -84.86 C-4.37 -95.21, -2.43 -103.85, -0.64 -108.41 M-9.04 -84.86 C-6.51 -91.47, -4.37 -99.69, -0.64 -108.41" stroke="#1e1e1e" stroke-width="2" fill="none"></path></g></g><mask></mask><g stroke-linecap="round" transform="translate(1075 206) rotate(0 112 51.5)"><path d="M25.75 0 C93.8 0.74, 162.02 0.01, 198.25 0 M25.75 0 C73.25 1.92, 121.6 1.65, 198.25 0 M198.25 0 C216.35 -1.22, 224.93 9.68, 224 25.75 M198.25 0 C216 -1.1, 225.04 10.08, 224 25.75 M224 25.75 C224.9 41.03, 222.44 54.42, 224 77.25 M224 25.75 C223.17 40.19, 223.42 53.43, 224 77.25 M224 77.25 C222.64 94.03, 215.24 104.75, 198.25 103 M224 77.25 C225.89 94.1, 214.95 104.33, 198.25 103 M198.25 103 C130.86 103.39, 64.88 104.62, 25.75 103 M198.25 103 C130.16 103.41, 61.52 104, 25.75 103 M25.75 103 C8.39 102.01, 0.2 94, 0 77.25 M25.75 103 C7.75 104.08, -1.32 92.73, 0 77.25 M0 77.25 C2.21 61.64, -0.36 48.39, 0 25.75 M0 77.25 C-0.5 63.44, -0.37 49.28, 0 25.75 M0 25.75 C-0.2 8.72, 10.39 -0.73, 25.75 0 M0 25.75 C0.3 9.89, 10.1 0.01, 25.75 0" stroke="#1e1e1e" stroke-width="2" fill="none"></path></g><g transform="translate(1099.3700637817383 232.5) rotate(0 87.62993621826172 25)"><text x="87.62993621826172" y="17.52" font-family="Virgil, Segoe UI Emoji" font-size="20px" fill="#1e1e1e" text-anchor="middle" style="white-space: pre;" direction="ltr" dominant-baseline="alphabetic">Send CloudWatch </text><text x="87.62993621826172" y="42.519999999999996" font-family="Virgil, Segoe UI Emoji" font-size="20px" fill="#1e1e1e" text-anchor="middle" style="white-space: pre;" direction="ltr" dominant-baseline="alphabetic">alert</text></g><g transform="translate(513 292) rotate(0 140.06988525390625 12.5)"><text x="0" y="17.52" font-family="Virgil, Segoe UI Emoji" font-size="20px" fill="#1e1e1e" text-anchor="start" style="white-space: pre;" direction="ltr" dominant-baseline="alphabetic">*Called at specified interval</text></g><g stroke-linecap="round" transform="translate(604 356) rotate(0 57.5 36.5)"><path d="M18.25 0 C43 0.08, 69.88 1.46, 96.75 0 M18.25 0 C46.82 -0.25, 74.57 0.83, 96.75 0 M96.75 0 C109.99 -0.37, 115.06 7.84, 115 18.25 M96.75 0 C109.62 -1.54, 115.19 6.74, 115 18.25 M115 18.25 C116.54 30, 113.47 40.64, 115 54.75 M115 18.25 C115.89 27.7, 115.72 37.23, 115 54.75 M115 54.75 C116.74 66.54, 109.73 71.66, 96.75 73 M115 54.75 C112.7 66.74, 108.14 74.34, 96.75 73 M96.75 73 C74.98 74.62, 52.77 72.53, 18.25 73 M96.75 73 C72.69 73.48, 50.25 72.83, 18.25 73 M18.25 73 C6.24 72.44, 0.3 68.41, 0 54.75 M18.25 73 C6.52 71.37, 2.26 67.49, 0 54.75 M0 54.75 C-0.79 45.98, 0.67 39.41, 0 18.25 M0 54.75 C0.06 44.47, -0.19 35.93, 0 18.25 M0 18.25 C-1.64 5.19, 4.32 0.21, 18.25 0 M0 18.25 C-0.62 7.73, 6.17 -1.82, 18.25 0" stroke="#1e1e1e" stroke-width="2" fill="none"></path></g><g transform="translate(635.5600280761719 380) rotate(0 25.939971923828125 12.5)"><text x="25.939971923828125" y="17.52" font-family="Virgil, Segoe UI Emoji" font-size="20px" fill="#1e1e1e" text-anchor="middle" style="white-space: pre;" direction="ltr" dominant-baseline="alphabetic">fetch</text></g><g stroke-linecap="round"><g transform="translate(680.9001843439489 431) rotate(0 40.52249820574082 63)"><path d="M0.37 1.16 C13.89 22.41, 68.29 105.82, 81.86 126.46 M-0.89 0.72 C12.47 21.69, 67.62 103.73, 81.34 124.57" stroke="#1e1e1e" stroke-width="2" fill="none"></path></g><g transform="translate(680.9001843439489 431) rotate(0 40.52249820574082 63)"><path d="M61.2 109.75 C70.36 116.45, 76.53 121.72, 81.34 124.57 M61.2 109.75 C66.32 113.06, 70.37 115.44, 81.34 124.57" stroke="#1e1e1e" stroke-width="2" fill="none"></path></g><g transform="translate(680.9001843439489 431) rotate(0 40.52249820574082 63)"><path d="M75.44 100.28 C79.32 110.48, 80.3 119.2, 81.34 124.57 M75.44 100.28 C77.5 105.76, 78.48 110.18, 81.34 124.57" stroke="#1e1e1e" stroke-width="2" fill="none"></path></g></g><mask></mask><g stroke-linecap="round"><g transform="translate(381.56888076336554 350.7851167663358) rotate(0 109.21555961831723 21.666926743714015)"><path d="M-0.2 -0.25 C35.92 7.24, 181.15 36.98, 217.46 44.23 M-1.77 -1.43 C34.66 5.79, 182.68 34.93, 219.66 42.58" stroke="#1e1e1e" stroke-width="2" fill="none"></path></g><g transform="translate(381.56888076336554 350.7851167663358) rotate(0 109.21555961831723 21.666926743714015)"><path d="M194.94 46.33 C203.44 43.4, 214.25 42.31, 219.66 42.58 M194.94 46.33 C202.63 44.91, 208.74 43.41, 219.66 42.58" stroke="#1e1e1e" stroke-width="2" fill="none"></path></g><g transform="translate(381.56888076336554 350.7851167663358) rotate(0 109.21555961831723 21.666926743714015)"><path d="M198.31 29.56 C205.51 32.66, 215.1 37.6, 219.66 42.58 M198.31 29.56 C204.85 33.01, 209.98 36.41, 219.66 42.58" stroke="#1e1e1e" stroke-width="2" fill="none"></path></g></g><mask></mask><g transform="translate(477 323) rotate(0 168.79986572265625 12.5)"><text x="0" y="17.52" font-family="Virgil, Segoe UI Emoji" font-size="20px" fill="#1e1e1e" text-anchor="start" style="white-space: pre;" direction="ltr" dominant-baseline="alphabetic">* Removes oldest row, adds newer</text></g></svg>