<svg version="1.1" xmlns="http://www.w3.org/2000/svg" viewBox="0 0 1166.395514799729 950.8622949104612" width="1166.395514799729" height="950.8622949104612">
  <!-- svg-source:excalidraw -->
  
  <defs>
    <style class="style-fonts">
      @font-face {
        font-family: "Virgil";
        src: url("https://excalidraw.com/Virgil.woff2");
      }
      @font-face {
        font-family: "Cascadia";
        src: url("https://excalidraw.com/Cascadia.woff2");
      }
      @font-face {
        font-family: "Assistant";
        src: url("https://excalidraw.com/Assistant-Regular.woff2");
      }
    </style>
    
  </defs>
  <rect x="0" y="0" width="1166.395514799729" height="950.8622949104612" fill="#ffffff"></rect><g stroke-linecap="round" transform="translate(12.335883452072721 197.00000000000009) rotate(0 186 139)"><path d="M32 0 C126.29 2.51, 222.35 0.53, 340 0 M32 0 C129.19 -0.24, 228.12 0.36, 340 0 M340 0 C360.6 -0.7, 370.89 11.26, 372 32 M340 0 C363.31 -2.23, 374.17 10.85, 372 32 M372 32 C374.79 80.61, 373.12 133.53, 372 246 M372 32 C373.14 82.91, 372.78 132.86, 372 246 M372 246 C373.65 266.23, 361.52 277.18, 340 278 M372 246 C372.25 266.88, 362.29 280.29, 340 278 M340 278 C261.33 276.38, 181.02 276.68, 32 278 M340 278 C263.51 280, 186 280.65, 32 278 M32 278 C9.04 279.1, 0.56 265.53, 0 246 M32 278 C10.57 276.58, -0.62 265.11, 0 246 M0 246 C0.03 190.56, 1.9 139.49, 0 32 M0 246 C2.38 165.91, 2.31 85.11, 0 32 M0 32 C-0.44 12.36, 11.84 -0.05, 32 0 M0 32 C-0.73 9.61, 12.96 2.09, 32 0" stroke="#1e1e1e" stroke-width="2" fill="none"></path></g><g stroke-linecap="round"><g transform="translate(10.335883452072721 264.0000000000001) rotate(0 185.45139821968974 2.019242510721085)"><path d="M0.74 0.93 C62.43 1.37, 307.29 3.17, 369.03 3.67 M-0.34 0.37 C61.82 0.98, 309.34 1.62, 371.24 1.9" stroke="#1e1e1e" stroke-width="2" fill="none"></path></g></g><mask></mask><g transform="translate(59.00255011873935 222.00000000000009) rotate(0 144.08987426757812 12.5)"><text x="0" y="17.52" font-family="Virgil, Segoe UI Emoji" font-size="20px" fill="#1e1e1e" text-anchor="start" style="white-space: pre;" direction="ltr" dominant-baseline="alphabetic">ModelTrainer (model_base.py)</text></g><g transform="translate(24.33588345207272 281.0000000000001) rotate(0 88.00993347167969 12.5)"><text x="0" y="17.52" font-family="Virgil, Segoe UI Emoji" font-size="20px" fill="#1e1e1e" text-anchor="start" style="white-space: pre;" direction="ltr" dominant-baseline="alphabetic">+train(data): void</text></g><g transform="translate(27.325949980393034 316.5000000000001) rotate(0 132.43984985351562 12.5)"><text x="0" y="17.52" font-family="Virgil, Segoe UI Emoji" font-size="20px" fill="#1e1e1e" text-anchor="start" style="white-space: pre;" direction="ltr" dominant-baseline="alphabetic">+predict(steps): predictions</text></g><g transform="translate(26.325949980393034 354.5000000000001) rotate(0 176.28142089843743 12.384194579964856)"><text x="0" y="17.35768712327873" font-family="Virgil, Segoe UI Emoji" font-size="19.814711327943755px" fill="#1e1e1e" text-anchor="start" style="white-space: pre;" direction="ltr" dominant-baseline="alphabetic">+evaluate(actual, predicted): metric</text></g><g transform="translate(26.94699456318392 135.00000000000003) rotate(0 168.2098388671875 12.5)"><text x="0" y="17.52" font-family="Virgil, Segoe UI Emoji" font-size="20px" fill="#1e1e1e" text-anchor="start" style="white-space: pre;" direction="ltr" dominant-baseline="alphabetic">Interface for models to implement</text></g><g stroke-linecap="round" transform="translate(718.2260474003315 198.08333333333346) rotate(0 186 139)"><path d="M32 0 C127.12 1.19, 225.07 1.14, 340 0 M32 0 C111.51 -0.05, 192.42 0.95, 340 0 M340 0 C362.35 1.38, 371.32 8.78, 372 32 M340 0 C359.15 0.04, 372.35 11.95, 372 32 M372 32 C373.01 85.53, 373.76 138.83, 372 246 M372 32 C372.08 82.32, 371.8 130.9, 372 246 M372 246 C373.68 266.11, 359.74 279.54, 340 278 M372 246 C371.21 265.86, 362.24 276.86, 340 278 M340 278 C256.37 279.68, 171.31 280.13, 32 278 M340 278 C220.14 276.63, 101.54 276.87, 32 278 M32 278 C9.77 277.49, -1.27 268.99, 0 246 M32 278 C11.02 278.14, -0.32 268.76, 0 246 M0 246 C0.05 167.82, -1.76 90.47, 0 32 M0 246 C-0.95 177.8, -1.46 107.76, 0 32 M0 32 C0.18 10.18, 11.95 1.26, 32 0 M0 32 C1 10.85, 8.78 1.34, 32 0" stroke="#1e1e1e" stroke-width="2" fill="none"></path></g><g stroke-linecap="round"><g transform="translate(716.2260474003315 265.0833333333335) rotate(0 185.6026988839451 1.82869007846341)"><path d="M1.07 0.6 C62.9 1.16, 309.5 2.14, 371.03 2.51 M0.18 -0.14 C61.93 0.67, 309.06 3.09, 370.62 3.79" stroke="#1e1e1e" stroke-width="2" fill="none"></path></g></g><mask></mask><g transform="translate(756.0038251781093 224.19444444444454) rotate(0 161.20986938476562 12.5)"><text x="0" y="17.52" font-family="Virgil, Segoe UI Emoji" font-size="20px" fill="#1e1e1e" text-anchor="start" style="white-space: pre;" direction="ltr" dominant-baseline="alphabetic">ARIMATrainer (arima_trainer.py)</text></g><g transform="translate(730.2260474003315 274.30555555555566) rotate(0 61.18993377685547 12.5)"><text x="0" y="17.52" font-family="Virgil, Segoe UI Emoji" font-size="20px" fill="#1e1e1e" text-anchor="start" style="white-space: pre;" direction="ltr" dominant-baseline="alphabetic">-order: tuple</text></g><g transform="translate(728.7716694842075 304.2500000000001) rotate(0 111.95989227294922 12.5)"><text x="0" y="17.52" font-family="Virgil, Segoe UI Emoji" font-size="20px" fill="#1e1e1e" text-anchor="start" style="white-space: pre;" direction="ltr" dominant-baseline="alphabetic">-seasonal_order: tuple</text></g><g transform="translate(729.9938917064296 335.5833333333335) rotate(0 130.96380615234375 12.384194579964856)"><text x="0" y="17.35768712327873" font-family="Virgil, Segoe UI Emoji" font-size="19.814711327943755px" fill="#1e1e1e" text-anchor="start" style="white-space: pre;" direction="ltr" dominant-baseline="alphabetic">-auto_arima_enabled: bool</text></g><g transform="translate(680.8358834520727 136.80555555555569) rotate(0 237.77981567382812 12.5)"><text x="0" y="17.52" font-family="Virgil, Segoe UI Emoji" font-size="20px" fill="#1e1e1e" text-anchor="start" style="white-space: pre;" direction="ltr" dominant-baseline="alphabetic">ARIMATrainer class -&gt; Implements ModelTrainer</text></g><g transform="translate(732.0942995219514 395.8102498644796) rotate(0 131.18170166015625 12.384194579964856)"><text x="0" y="17.35768712327873" font-family="Virgil, Segoe UI Emoji" font-size="19.814711327943755px" fill="#1e1e1e" text-anchor="start" style="white-space: pre;" direction="ltr" dominant-baseline="alphabetic">+predict(steps): predictions</text></g><g transform="translate(730.9831884108403 364.69913875336863) rotate(0 87.173828125 12.384194579964856)"><text x="0" y="17.35768712327873" font-family="Virgil, Segoe UI Emoji" font-size="19.814711327943755px" fill="#1e1e1e" text-anchor="start" style="white-space: pre;" direction="ltr" dominant-baseline="alphabetic">+train(data): void</text></g><g transform="translate(727.649855077507 430.2546943089242) rotate(0 176.239501953125 12.384194579964856)"><text x="0" y="17.35768712327873" font-family="Virgil, Segoe UI Emoji" font-size="19.814711327943755px" fill="#1e1e1e" text-anchor="start" style="white-space: pre;" direction="ltr" dominant-baseline="alphabetic">+evaluate(actual, predicted): metric</text></g><g stroke-linecap="round" transform="translate(13.263398521736349 586) rotate(0 331.8951769276045 177.4311474552306)"><path d="M32 0 C254.32 -1.68, 476.3 -1.25, 631.79 0 M32 0 C221.84 0.02, 411.85 -0.71, 631.79 0 M631.79 0 C652.4 1.01, 662.37 9.47, 663.79 32 M631.79 0 C655.31 1.58, 664.35 8.68, 663.79 32 M663.79 32 C663.36 145.39, 664.17 260.53, 663.79 322.86 M663.79 32 C663.81 109.73, 663.87 186.73, 663.79 322.86 M663.79 322.86 C662.11 342.41, 652.09 353.53, 631.79 354.86 M663.79 322.86 C662 344.94, 651.03 354.48, 631.79 354.86 M631.79 354.86 C509.42 356.17, 387.46 356.65, 32 354.86 M631.79 354.86 C500.35 354.07, 369.52 353.85, 32 354.86 M32 354.86 C11.23 354.51, -1.6 345.83, 0 322.86 M32 354.86 C10.88 352.91, -0.47 341.99, 0 322.86 M0 322.86 C-2.7 222.82, -2.77 120.35, 0 32 M0 322.86 C1.81 247.76, 2.16 172.55, 0 32 M0 32 C-0.3 10.79, 10.09 -1.42, 32 0 M0 32 C-0.91 10.2, 11.87 1.67, 32 0" stroke="#1e1e1e" stroke-width="2" fill="none"></path></g><g stroke-linecap="round"><g transform="translate(10.728417982812175 670.92184805396) rotate(0 332.79543163628716 0.9940754301396169)"><path d="M-0.65 -0.76 C110.28 -0.28, 555.14 2.17, 666.24 2.75 M1.21 1.45 C111.93 1.55, 554.65 0.29, 665.29 0.73" stroke="#1e1e1e" stroke-width="2" fill="none"></path></g></g><mask></mask><g transform="translate(104.70601900993586 618.7612164213492) rotate(0 248.06035508288716 15.843628368276143)"><text x="0" y="22.206429520975824" font-family="Virgil, Segoe UI Emoji" font-size="25.349805389241812px" fill="#1e1e1e" text-anchor="start" style="white-space: pre;" direction="ltr" dominant-baseline="alphabetic">NatgasARIMAModel -&gt; natgas_arima.py</text></g><g transform="translate(28.473281755281505 682.6109249834437) rotate(0 187.32586669921875 15.843628368276143)"><text x="0" y="22.206429520975824" font-family="Virgil, Segoe UI Emoji" font-size="25.349805389241812px" fill="#1e1e1e" text-anchor="start" style="white-space: pre;" direction="ltr" dominant-baseline="alphabetic">-arima_trainer: ARIMATrainer</text></g><g transform="translate(26.629871898473425 720.5652169412252) rotate(0 322.3373413085938 15.843628368276143)"><text x="0" y="22.206429520975824" font-family="Virgil, Segoe UI Emoji" font-size="25.349805389241812px" fill="#1e1e1e" text-anchor="start" style="white-space: pre;" direction="ltr" dominant-baseline="alphabetic">+fetch_data(ticker, start_date, end_date): data</text></g><g transform="translate(28.179026672260648 760.2799120510375) rotate(0 110.49649810791016 15.696846125230593)"><text x="0" y="22.000699529123217" font-family="Virgil, Segoe UI Emoji" font-size="25.11495380036897px" fill="#1e1e1e" text-anchor="start" style="white-space: pre;" direction="ltr" dominant-baseline="alphabetic">+train(data): void</text></g><g transform="translate(30.841273140336284 836.6169427139707) rotate(0 168.12393188476562 15.696846125230593)"><text x="0" y="22.000699529123217" font-family="Virgil, Segoe UI Emoji" font-size="25.11495380036897px" fill="#1e1e1e" text-anchor="start" style="white-space: pre;" direction="ltr" dominant-baseline="alphabetic">+save_model(filepath): void</text></g><g transform="translate(29.432950618712084 797.1839121084836) rotate(0 166.2783203125 15.696846125230593)"><text x="0" y="22.000699529123217" font-family="Virgil, Segoe UI Emoji" font-size="25.11495380036897px" fill="#1e1e1e" text-anchor="start" style="white-space: pre;" direction="ltr" dominant-baseline="alphabetic">+predict(steps): predictions</text></g><g transform="translate(25.207983053838234 880.2749408843318) rotate(0 165.27395629882812 15.696846125230593)"><text x="0" y="22.000699529123217" font-family="Virgil, Segoe UI Emoji" font-size="25.11495380036897px" fill="#1e1e1e" text-anchor="start" style="white-space: pre;" direction="ltr" dominant-baseline="alphabetic">+load_model(filepath): void</text></g><g transform="translate(18.891439007628264 540) rotate(0 336.3197326660157 12.5)"><text x="0" y="17.52" font-family="Virgil, Segoe UI Emoji" font-size="20px" fill="#1e1e1e" text-anchor="start" style="white-space: pre;" direction="ltr" dominant-baseline="alphabetic">Utilizes ARIMATrainer class to work specifically with NATGAS price</text></g><g mask="url(#mask-NEXd_nkMwapEgUNlqpF7T)" stroke-linecap="round"><g transform="translate(712.6414390076282 355.6818661051699) rotate(0 -157.26992197342213 0.6992450231066982)"><path d="M0.98 0.09 C-51.49 0.09, -262.3 0.73, -315.15 0.71 M0.04 -0.9 C-52.46 -0.76, -262.72 2, -315.52 2.3" stroke="#1e1e1e" stroke-width="2" fill="none"></path></g><g transform="translate(712.6414390076282 355.6818661051699) rotate(0 -157.26992197342213 0.6992450231066982)"><path d="M-292.11 -6.48 C-298.27 -2.07, -304.59 -1.27, -315.52 2.3 M-292.11 -6.48 C-297.73 -5.26, -302.96 -2.61, -315.52 2.3" stroke="#1e1e1e" stroke-width="2" fill="none"></path></g><g transform="translate(712.6414390076282 355.6818661051699) rotate(0 -157.26992197342213 0.6992450231066982)"><path d="M-291.95 10.62 C-298.25 10.39, -304.62 6.54, -315.52 2.3 M-291.95 10.62 C-297.55 7.66, -302.82 6.11, -315.52 2.3" stroke="#1e1e1e" stroke-width="2" fill="none"></path></g></g><mask id="mask-NEXd_nkMwapEgUNlqpF7T"><rect x="0" y="0" fill="#fff" width="1128.891439007628" height="456.2741377357355"></rect><rect x="502.1564918030383" y="343.47800192045264" fill="#000" width="104.71989440917969" height="25" opacity="1"></rect></mask><g transform="translate(502.1564918030383 343.47800192045275) rotate(0 53.215025231167715 12.903109207823888)"><text x="52.359947204589844" y="17.52" font-family="Virgil, Segoe UI Emoji" font-size="20px" fill="#1e1e1e" text-anchor="middle" style="white-space: pre;" direction="ltr" dominant-baseline="alphabetic">Implements</text></g><g mask="url(#mask-XsiYjN9pTRCSRGgTFPZ_V)" stroke-linecap="round"><g transform="translate(896.3914390076284 482.5) rotate(0 -107.02123843019615 110.60031994357618)"><path d="M0.52 -1.19 C-2.52 31.52, 18.4 159.33, -17.81 196.38 C-54.03 233.42, -183.67 216.86, -216.8 221.09 M-0.67 0.79 C-3.94 33.72, 17.27 161.12, -18.93 197.98 C-55.12 234.84, -184.92 217.83, -217.85 221.95" stroke="#1e1e1e" stroke-width="2" fill="none"></path></g><g transform="translate(896.3914390076284 482.5) rotate(0 -107.02123843019615 110.60031994357618)"><path d="M-194.37 213.39 C-204.25 215.85, -209.96 218.34, -217.85 221.95 M-194.37 213.39 C-198.76 214.99, -205 217.1, -217.85 221.95" stroke="#1e1e1e" stroke-width="2" fill="none"></path></g><g transform="translate(896.3914390076284 482.5) rotate(0 -107.02123843019615 110.60031994357618)"><path d="M-194.36 230.49 C-204.26 227.19, -209.97 223.93, -217.85 221.95 M-194.36 230.49 C-198.7 228.2, -204.94 226.42, -217.85 221.95" stroke="#1e1e1e" stroke-width="2" fill="none"></path></g></g><mask id="mask-XsiYjN9pTRCSRGgTFPZ_V"><rect x="0" y="0" fill="#fff" width="1212.6414390076284" height="804.4587175334278"></rect><rect x="824.3114905823354" y="666.2500000000001" fill="#000" width="109.15989685058594" height="25" opacity="1"></rect></mask><g transform="translate(824.3114905823354 666.2500000000001) rotate(0 -34.94129000490318 -73.14968005642382)"><text x="54.57994842529297" y="17.52" font-family="Virgil, Segoe UI Emoji" font-size="20px" fill="#1e1e1e" text-anchor="middle" style="white-space: pre;" direction="ltr" dominant-baseline="alphabetic">Aggregates</text></g><g transform="translate(382.64143900762815 10) rotate(0 170.09185638427743 32.5)"><text x="0" y="45.552000000000035" font-family="Virgil, Segoe UI Emoji" font-size="52.000000000000036px" fill="#1e1e1e" text-anchor="start" style="white-space: pre;" direction="ltr" dominant-baseline="alphabetic">Models Chart</text></g></svg>