<svg version="1.1" xmlns="http://www.w3.org/2000/svg" viewBox="0 0 1726.906815498594 1053.7945303387114" width="1726.906815498594" height="1053.7945303387114">
  <!-- svg-source:excalidraw -->
  
  <defs>
    <style class="style-fonts">
      @font-face {
        font-family: "Virgil";
        src: url("https://excalidraw.com/Virgil.woff2");
      }
      @font-face {
        font-family: "Cascadia";
        src: url("https://excalidraw.com/Cascadia.woff2");
      }
      @font-face {
        font-family: "Assistant";
        src: url("https://excalidraw.com/Assistant-Regular.woff2");
      }
    </style>
    
  </defs>
  <rect x="0" y="0" width="1726.906815498594" height="1053.7945303387114" fill="#ffffff"></rect><g stroke-linecap="round" transform="translate(375.8512599430382 330.9722222222223) rotate(0 106.5 84)"><path d="M32 0 C90.14 -1.68, 149.54 1.74, 181 0 M32 0 C80.21 0.99, 128.35 1.72, 181 0 M181 0 C200.59 1.31, 214.37 11.24, 213 32 M181 0 C204.51 -0.21, 212.71 12.09, 213 32 M213 32 C214.37 64.38, 212.11 96.35, 213 136 M213 32 C213.53 55.93, 212.4 80.02, 213 136 M213 136 C212.48 155.41, 202.61 168.27, 181 168 M213 136 C213.07 156.28, 202.5 168.8, 181 168 M181 168 C150.8 167.33, 118.06 164.9, 32 168 M181 168 C145.64 166.28, 110.16 167.72, 32 168 M32 168 C11.35 166.01, 1.56 157.98, 0 136 M32 168 C11.96 169.78, 2.1 156.3, 0 136 M0 136 C-1.86 96.61, -0.33 53.91, 0 32 M0 136 C-1.66 112.65, -1.37 90.51, 0 32 M0 32 C0.18 12.27, 11.9 -1.13, 32 0 M0 32 C0.06 10.4, 10.67 -0.94, 32 0" stroke="#1e1e1e" stroke-width="2" fill="none"></path></g><g transform="translate(394.8013560734093 389.9722222222223) rotate(0 87.5499038696289 25)"><text x="87.5499038696289" y="17.52" font-family="Virgil, Segoe UI Emoji" font-size="20px" fill="#1e1e1e" text-anchor="middle" style="white-space: pre;" direction="ltr" dominant-baseline="alphabetic">Trainer Singleton </text><text x="87.5499038696289" y="42.519999999999996" font-family="Virgil, Segoe UI Emoji" font-size="20px" fill="#1e1e1e" text-anchor="middle" style="white-space: pre;" direction="ltr" dominant-baseline="alphabetic">instance</text></g><g stroke-linecap="round" transform="translate(1596.656815498594 191) rotate(0 51 37.5)"><path d="M30 3.59 C37.79 0.34, 49.76 -0.82, 58.95 0.26 C68.14 1.33, 78.3 5.73, 85.14 10.02 C91.98 14.32, 97.56 19.7, 99.99 26.03 C102.43 32.37, 102.39 41.54, 99.76 48.05 C97.13 54.56, 91.21 60.7, 84.22 65.11 C77.23 69.53, 66.99 73.63, 57.81 74.55 C48.63 75.47, 37.52 73.34, 29.15 70.65 C20.78 67.96, 12.54 63.82, 7.58 58.4 C2.62 52.97, -0.81 45.02, -0.61 38.08 C-0.42 31.14, 3.21 22.72, 8.75 16.74 C14.3 10.77, 28.28 4.65, 32.64 2.24 C37.01 -0.17, 34.72 1.7, 34.93 2.28 M53.88 -0.41 C62.68 -0.67, 74.18 2.87, 81.53 7.24 C88.88 11.62, 94.79 19.67, 97.97 25.84 C101.15 32.01, 102.51 37.85, 100.61 44.25 C98.7 50.65, 92.79 59.23, 86.55 64.22 C80.3 69.21, 72.09 72.59, 63.14 74.21 C54.19 75.82, 41.7 76.44, 32.87 73.91 C24.03 71.37, 15.83 64.54, 10.13 58.98 C4.44 53.43, -0.56 47.29, -1.32 40.58 C-2.08 33.87, 0.94 24.98, 5.58 18.73 C10.23 12.47, 18.5 6.11, 26.56 3.05 C34.61 -0.01, 49.01 0.51, 53.9 0.35 C58.78 0.2, 55.97 1.42, 55.87 2.12" stroke="#1e1e1e" stroke-width="2" fill="none"></path></g><g transform="translate(1625.2543962083728 215.98349570550448) rotate(0 22.33997344970703 12.5)"><text x="22.33997344970703" y="17.52" font-family="Virgil, Segoe UI Emoji" font-size="20px" fill="#1e1e1e" text-anchor="middle" style="white-space: pre;" direction="ltr" dominant-baseline="alphabetic">User</text></g><g stroke-linecap="round" transform="translate(1637.906815498594 10) rotate(0 39.5 31.5)"><path d="M15.75 0 C27.22 1.89, 40.73 -1.67, 63.25 0 M15.75 0 C28.71 -0.58, 42.49 -0.42, 63.25 0 M63.25 0 C72.54 -1.92, 79.67 4.29, 79 15.75 M63.25 0 C72.66 -0.19, 76.72 3.9, 79 15.75 M79 15.75 C77.78 26.71, 78.19 34.21, 79 47.25 M79 15.75 C77.79 26.72, 78.85 35.39, 79 47.25 M79 47.25 C80.12 56.9, 75.7 63.52, 63.25 63 M79 47.25 C77.72 57.88, 75.16 62.63, 63.25 63 M63.25 63 C44.6 61.55, 25.44 61.03, 15.75 63 M63.25 63 C50.41 62.49, 38.77 63.66, 15.75 63 M15.75 63 C5.15 63.86, -1.48 57.72, 0 47.25 M15.75 63 C4.77 62.79, 2.16 59.24, 0 47.25 M0 47.25 C-0.87 37.48, 0.61 27.92, 0 15.75 M0 47.25 C-0.01 35.73, -0.17 24.24, 0 15.75 M0 15.75 C-1.59 5.08, 6.81 1.72, 15.75 0 M0 15.75 C-1.15 5.53, 4.36 -0.94, 15.75 0" stroke="#1e1e1e" stroke-width="2" fill="none"></path></g><g transform="translate(1658.786828010801 29) rotate(0 18.61998748779297 12.5)"><text x="18.61998748779297" y="17.52" font-family="Virgil, Segoe UI Emoji" font-size="20px" fill="#1e1e1e" text-anchor="middle" style="white-space: pre;" direction="ltr" dominant-baseline="alphabetic">API</text></g><g mask="url(#mask-PqW3I6OpywFMVc-6gwqId)" stroke-linecap="round"><g transform="translate(1680.558070092738 195.1318596384749) rotate(0 0.5287760514765978 -56.8674306041645)"><path d="M0.63 -0.65 C0.8 -19.86, 1.66 -96.35, 1.55 -115.36 M-0.5 1.62 C-0.42 -17.45, 1.32 -95.14, 1.23 -114.33" stroke="#1e1e1e" stroke-width="2" fill="none"></path></g><g transform="translate(1680.558070092738 195.1318596384749) rotate(0 0.5287760514765978 -56.8674306041645)"><path d="M9.53 -90.75 C5.65 -96.74, 2.27 -107.44, 1.23 -114.33 M9.53 -90.75 C6.85 -97.42, 4.38 -103.8, 1.23 -114.33" stroke="#1e1e1e" stroke-width="2" fill="none"></path></g><g transform="translate(1680.558070092738 195.1318596384749) rotate(0 0.5287760514765978 -56.8674306041645)"><path d="M-7.57 -90.93 C-5.63 -96.95, -3.18 -107.59, 1.23 -114.33 M-7.57 -90.93 C-5.56 -97.41, -3.32 -103.74, 1.23 -114.33" stroke="#1e1e1e" stroke-width="2" fill="none"></path></g></g><mask id="mask-PqW3I6OpywFMVc-6gwqId"><rect x="0" y="0" fill="#fff" width="1780.910272403894" height="409.5137192769498"></rect><rect x="1658.3541968830814" y="125.44092981923745" fill="#000" width="44.75994873046875" height="25" opacity="1"></rect></mask><g transform="translate(1658.3541968830814 125.44092981923745) rotate(0 22.73264926113302 12.823499215072957)"><text x="22.379974365234375" y="17.52" font-family="Virgil, Segoe UI Emoji" font-size="20px" fill="#1e1e1e" text-anchor="middle" style="white-space: pre;" direction="ltr" dominant-baseline="alphabetic">calls</text></g><g stroke-linecap="round" transform="translate(292.4329775401519 517.5277777777778) rotate(0 91.5 44.5)"><path d="M65.43 2.71 C77.25 0.33, 93.78 -0.03, 106.79 0.93 C119.81 1.89, 132.84 4.86, 143.5 8.47 C154.16 12.09, 164.06 17.12, 170.77 22.62 C177.47 28.11, 182.96 34.95, 183.73 41.42 C184.5 47.89, 180.68 55.41, 175.38 61.44 C170.07 67.47, 161.58 73.32, 151.9 77.59 C142.21 81.86, 129.71 85.15, 117.25 87.05 C104.79 88.95, 90.27 90.15, 77.16 89 C64.04 87.86, 49.59 84.01, 38.54 80.16 C27.49 76.31, 17.36 71.41, 10.84 65.91 C4.31 60.41, -0.02 53.67, -0.62 47.16 C-1.23 40.66, 2.19 33, 7.2 26.89 C12.22 20.77, 17.44 14.83, 29.49 10.48 C41.55 6.14, 69.16 2.3, 79.51 0.84 C89.86 -0.62, 91.64 1.1, 91.58 1.71 M131.15 5.14 C143.02 7.39, 154.15 12.18, 162.56 17.38 C170.97 22.58, 178.69 30.15, 181.59 36.35 C184.5 42.55, 183.15 48.31, 180.01 54.58 C176.87 60.85, 171.31 69.09, 162.76 73.96 C154.2 78.83, 140.9 81.16, 128.68 83.81 C116.46 86.47, 102.22 90, 89.44 89.9 C76.66 89.81, 63.79 86.3, 51.99 83.23 C40.19 80.15, 26.94 76.48, 18.66 71.48 C10.38 66.48, 4.95 59.52, 2.31 53.2 C-0.34 46.88, -0.16 39.77, 2.78 33.57 C5.72 27.38, 11.67 21.16, 19.93 16.04 C28.18 10.91, 40.02 5.74, 52.29 2.83 C64.56 -0.07, 80.19 -1.8, 93.54 -1.39 C106.9 -0.99, 125.89 4.14, 132.41 5.26 C138.94 6.38, 133.57 4.89, 132.69 5.3" stroke="#1e1e1e" stroke-width="2" fill="none"></path></g><g transform="translate(326.1727705381453 549.5615260149766) rotate(0 57.5599365234375 12.5)"><text x="57.5599365234375" y="17.52" font-family="Virgil, Segoe UI Emoji" font-size="20px" fill="#1e1e1e" text-anchor="middle" style="white-space: pre;" direction="ltr" dominant-baseline="alphabetic">performance</text></g><g stroke-linecap="round" transform="translate(680.0996442068188 176.78917280832934) rotate(0 76 39.5)"><path d="M92.64 0.22 C103.77 0.62, 116.1 4.34, 124.99 8.52 C133.87 12.69, 141.59 19.57, 145.95 25.25 C150.3 30.93, 152.28 36.68, 151.13 42.61 C149.98 48.54, 145.2 55.55, 139.07 60.84 C132.94 66.13, 124.55 71.2, 114.36 74.34 C104.17 77.49, 89.9 79.51, 77.92 79.72 C65.95 79.93, 52.87 78.55, 42.49 75.6 C32.11 72.65, 22.59 67.07, 15.64 62.03 C8.69 56.99, 2.63 51.24, 0.79 45.37 C-1.04 39.51, 0.9 32.62, 4.64 26.82 C8.39 21.03, 14.85 14.72, 23.29 10.59 C31.73 6.47, 43.32 3.75, 55.27 2.07 C67.22 0.39, 87.95 0.36, 95 0.52 C102.05 0.68, 97.93 2.2, 97.57 3.02 M42.58 3.17 C52.16 0.07, 64.75 -0.53, 76.29 -0.52 C87.83 -0.5, 101.28 0.33, 111.82 3.27 C122.36 6.21, 132.9 11.96, 139.54 17.13 C146.18 22.29, 150.7 28.37, 151.67 34.27 C152.64 40.17, 149.79 46.47, 145.35 52.52 C140.91 58.58, 133.45 66.29, 125.03 70.59 C116.62 74.89, 106.32 77.28, 94.88 78.31 C83.43 79.35, 67.8 78.48, 56.36 76.8 C44.92 75.12, 35.07 72, 26.24 68.21 C17.42 64.42, 7.48 59.92, 3.39 54.05 C-0.7 48.18, -0.19 39.27, 1.72 33 C3.64 26.72, 8.22 21.13, 14.88 16.4 C21.53 11.67, 37.19 6.62, 41.67 4.62 C46.15 2.63, 41.17 3.93, 41.76 4.43" stroke="#1e1e1e" stroke-width="2" fill="none"></path></g><g transform="translate(728.0995648473834 203.85845495146071) rotate(0 27.759963989257812 12.5)"><text x="27.759963989257812" y="17.52" font-family="Virgil, Segoe UI Emoji" font-size="20px" fill="#1e1e1e" text-anchor="middle" style="white-space: pre;" direction="ltr" dominant-baseline="alphabetic">queue</text></g><g stroke-linecap="round" transform="translate(553.9885330957075 277.67806169721825) rotate(0 78 24.5)"><path d="M88.79 -0.7 C100.26 -0.6, 113.92 2.27, 123.81 4.69 C133.69 7.11, 142.63 10.32, 148.08 13.83 C153.53 17.35, 156.79 22.03, 156.5 25.78 C156.2 29.53, 152.32 33, 146.34 36.35 C140.35 39.69, 130.59 43.77, 120.57 45.86 C110.55 47.94, 98.33 48.55, 86.22 48.85 C74.1 49.15, 59.12 49.18, 47.88 47.65 C36.64 46.13, 26.48 42.55, 18.78 39.71 C11.07 36.88, 4.44 34.1, 1.67 30.63 C-1.1 27.17, -1.01 22.6, 2.16 18.93 C5.34 15.26, 12.48 11.49, 20.71 8.62 C28.94 5.75, 37.8 2.82, 51.54 1.71 C65.28 0.59, 92.33 1.73, 103.16 1.94 C113.99 2.16, 116.89 2.77, 116.52 3 M113.57 2.87 C124.17 4.13, 135.44 6.83, 142.4 10.12 C149.35 13.41, 153.94 18.67, 155.32 22.61 C156.7 26.55, 155.13 30.27, 150.68 33.75 C146.22 37.23, 137.81 41.07, 128.59 43.49 C119.37 45.91, 107.12 47.38, 95.36 48.27 C83.61 49.16, 69.88 49.74, 58.07 48.84 C46.27 47.93, 33.21 45.61, 24.52 42.82 C15.83 40.03, 9.69 35.77, 5.93 32.08 C2.16 28.38, 0.73 24.4, 1.94 20.67 C3.14 16.94, 6.38 12.48, 13.17 9.71 C19.96 6.94, 31.99 5.5, 42.7 4.04 C53.41 2.58, 65.33 1.11, 77.43 0.97 C89.53 0.82, 109.31 2.75, 115.28 3.18 C121.26 3.6, 114.12 3.42, 113.27 3.51" stroke="#1e1e1e" stroke-width="2" fill="none"></path></g><g transform="translate(601.1542420049536 289.85394555814787) rotate(0 30.679962158203125 12.5)"><text x="30.679962158203125" y="17.52" font-family="Virgil, Segoe UI Emoji" font-size="20px" fill="#1e1e1e" text-anchor="middle" style="white-space: pre;" direction="ltr" dominant-baseline="alphabetic">prio_q</text></g><g stroke-linecap="round" transform="translate(634.6551997623742 425.34472836388477) rotate(0 67.5 60)"><path d="M67.61 0.11 C77.3 -0.99, 88.36 1.49, 97.61 5.87 C106.87 10.25, 116.84 18.68, 123.13 26.39 C129.42 34.11, 134.21 43.18, 135.34 52.17 C136.47 61.16, 133.71 71.5, 129.9 80.35 C126.09 89.2, 120.23 98.82, 112.49 105.27 C104.74 111.73, 93.56 116.95, 83.41 119.1 C73.26 121.24, 61.51 120.54, 51.6 118.16 C41.68 115.78, 31.78 110.74, 23.92 104.81 C16.05 98.88, 8.45 91.29, 4.39 82.57 C0.34 73.86, -1.76 62.09, -0.43 52.54 C0.9 42.98, 6.51 32.95, 12.4 25.26 C18.29 17.57, 24.25 10.47, 34.91 6.42 C45.56 2.37, 68.24 1.48, 76.32 0.95 C84.4 0.42, 83.7 2.48, 83.38 3.25 M77.74 -0.4 C87.78 -0.34, 98.89 4.93, 107.47 10.51 C116.05 16.09, 124.66 24.62, 129.22 33.1 C133.78 41.58, 135.09 51.91, 134.82 61.4 C134.56 70.89, 132.83 81.77, 127.63 90.07 C122.44 98.36, 112.63 106.19, 103.64 111.16 C94.64 116.14, 83.78 119.43, 73.67 119.93 C63.56 120.44, 52.37 117.65, 42.97 114.2 C33.56 110.75, 23.95 105.96, 17.23 99.21 C10.51 92.46, 4.99 82.67, 2.66 73.69 C0.33 64.71, 0.58 54.49, 3.26 45.31 C5.95 36.14, 11.58 25.54, 18.77 18.64 C25.96 11.73, 36.64 6.67, 46.4 3.91 C56.15 1.15, 72.44 2.46, 77.32 2.08 C82.2 1.7, 76.09 0.8, 75.68 1.64" stroke="#1e1e1e" stroke-width="2" fill="none"></path></g><g transform="translate(659.745529874079 447.9183214926919) rotate(0 42.179962158203125 37.5)"><text x="42.179962158203125" y="17.52" font-family="Virgil, Segoe UI Emoji" font-size="20px" fill="#1e1e1e" text-anchor="middle" style="white-space: pre;" direction="ltr" dominant-baseline="alphabetic">current</text><text x="42.179962158203125" y="42.519999999999996" font-family="Virgil, Segoe UI Emoji" font-size="20px" fill="#1e1e1e" text-anchor="middle" style="white-space: pre;" direction="ltr" dominant-baseline="alphabetic">_model_</text><text x="42.179962158203125" y="67.52" font-family="Virgil, Segoe UI Emoji" font-size="20px" fill="#1e1e1e" text-anchor="middle" style="white-space: pre;" direction="ltr" dominant-baseline="alphabetic">instance</text></g><g stroke-linecap="round" transform="translate(499.8774219845962 528.4558394749963) rotate(0 72 60)"><path d="M69.75 0.78 C80.12 -0.19, 92.89 2.6, 103.02 6.47 C113.16 10.34, 123.84 16.64, 130.56 23.99 C137.28 31.33, 141.75 41.41, 143.35 50.55 C144.96 59.69, 143.88 70.01, 140.18 78.84 C136.47 87.67, 129.1 97.02, 121.12 103.53 C113.15 110.05, 102.87 115.46, 92.34 117.91 C81.8 120.36, 69.1 120.28, 57.91 118.25 C46.71 116.22, 33.86 111.5, 25.17 105.71 C16.48 99.92, 9.81 91.9, 5.76 83.5 C1.71 75.1, 0 64.68, 0.89 55.32 C1.79 45.95, 5.11 35.25, 11.13 27.31 C17.14 19.37, 26.44 12.17, 36.99 7.69 C47.54 3.2, 67.72 1.56, 74.41 0.38 C81.1 -0.79, 77.2 -0.35, 77.13 0.64 M81.47 1.42 C91.89 2.02, 104.19 6.88, 113.41 12.17 C122.64 17.46, 131.48 24.81, 136.82 33.17 C142.15 41.53, 145.87 53.2, 145.4 62.32 C144.93 71.43, 139.46 80.05, 133.99 87.84 C128.51 95.63, 121.97 103.5, 112.54 109.06 C103.11 114.62, 88.7 120.25, 77.4 121.19 C66.1 122.14, 54.72 118.55, 44.74 114.72 C34.76 110.89, 24.91 105.27, 17.52 98.23 C10.14 91.19, 2.83 81.71, 0.41 72.48 C-2.01 63.26, -0.22 51.72, 2.99 42.86 C6.2 34, 11.93 25.76, 19.67 19.3 C27.41 12.84, 38.81 7.17, 49.41 4.12 C60.02 1.07, 77.93 1.22, 83.31 0.99 C88.69 0.77, 81.74 2.06, 81.68 2.75" stroke="#1e1e1e" stroke-width="2" fill="none"></path></g><g transform="translate(528.6157734120163 551.0294326038035) rotate(0 43.34996032714844 37.5)"><text x="43.34996032714844" y="17.52" font-family="Virgil, Segoe UI Emoji" font-size="20px" fill="#1e1e1e" text-anchor="middle" style="white-space: pre;" direction="ltr" dominant-baseline="alphabetic">current_</text><text x="43.34996032714844" y="42.519999999999996" font-family="Virgil, Segoe UI Emoji" font-size="20px" fill="#1e1e1e" text-anchor="middle" style="white-space: pre;" direction="ltr" dominant-baseline="alphabetic">trained_</text><text x="43.34996032714844" y="67.52" font-family="Virgil, Segoe UI Emoji" font-size="20px" fill="#1e1e1e" text-anchor="middle" style="white-space: pre;" direction="ltr" dominant-baseline="alphabetic">model</text></g><g stroke-linecap="round" transform="translate(1223.5342502291237 83.8088150024414) rotate(0 104 45)"><path d="M22.5 0 C80.51 2.6, 134.54 0.09, 185.5 0 M22.5 0 C57.8 -0.96, 93.77 -1.23, 185.5 0 M185.5 0 C199.79 -0.75, 207.96 9.22, 208 22.5 M185.5 0 C201.3 -1.17, 208.35 7.17, 208 22.5 M208 22.5 C207.03 33.32, 206.31 40.84, 208 67.5 M208 22.5 C208.55 32.99, 208.77 44.67, 208 67.5 M208 67.5 C209.88 80.67, 201.5 88.48, 185.5 90 M208 67.5 C208.42 81.02, 200.46 89.74, 185.5 90 M185.5 90 C141.6 91.56, 97.83 91.83, 22.5 90 M185.5 90 C129.13 91.25, 75.15 91.21, 22.5 90 M22.5 90 C7.73 90.54, -0.62 81.87, 0 67.5 M22.5 90 C5.62 88.85, -2.23 83.43, 0 67.5 M0 67.5 C0.82 58.56, 0.54 49.24, 0 22.5 M0 67.5 C-0.91 57.81, -0.59 49.74, 0 22.5 M0 22.5 C0.69 8.43, 8.43 1.87, 22.5 0 M0 22.5 C1.42 6.32, 6.46 -1.88, 22.5 0" stroke="#1e1e1e" stroke-width="2" fill="none"></path></g><g transform="translate(1248.1843356783424 116.3088150024414) rotate(0 79.34991455078125 12.5)"><text x="79.34991455078125" y="17.52" font-family="Virgil, Segoe UI Emoji" font-size="20px" fill="#1e1e1e" text-anchor="middle" style="white-space: pre;" direction="ltr" dominant-baseline="alphabetic">enqueue_model()</text></g><g transform="translate(1220.14213749719 25.34808349609375) rotate(0 130.2498321533203 25)"><text x="0" y="17.52" font-family="Virgil, Segoe UI Emoji" font-size="20px" fill="#1e1e1e" text-anchor="start" style="white-space: pre;" direction="ltr" dominant-baseline="alphabetic">*checks if user is priority </text><text x="0" y="42.519999999999996" font-family="Virgil, Segoe UI Emoji" font-size="20px" fill="#1e1e1e" text-anchor="start" style="white-space: pre;" direction="ltr" dominant-baseline="alphabetic">or non-priority</text></g><g stroke-linecap="round"><g transform="translate(1636.3087320025002 45.919052850073) rotate(0 -72.44374658839308 -0.8706171349811669)"><path d="M0.93 -1.2 C-23.05 -1.49, -120.64 -0.94, -144.8 -0.84 M-0.05 0.79 C-24.1 0.08, -121.74 -2.01, -145.81 -2.53" stroke="#1e1e1e" stroke-width="2" fill="none"></path></g><g transform="translate(1636.3087320025002 45.919052850073) rotate(0 -72.44374658839308 -0.8706171349811669)"><path d="M-122.14 -10.57 C-129.28 -8.84, -131.14 -5.79, -145.81 -2.53 M-122.14 -10.57 C-132.05 -8.22, -140.74 -4.57, -145.81 -2.53" stroke="#1e1e1e" stroke-width="2" fill="none"></path></g><g transform="translate(1636.3087320025002 45.919052850073) rotate(0 -72.44374658839308 -0.8706171349811669)"><path d="M-122.51 6.52 C-129.7 4.49, -131.48 3.78, -145.81 -2.53 M-122.51 6.52 C-132.32 2.19, -140.87 -0.86, -145.81 -2.53" stroke="#1e1e1e" stroke-width="2" fill="none"></path></g></g><mask></mask><g stroke-linecap="round"><g transform="translate(1222.5342502291237 165.7902033531455) rotate(0 -230.8342063407457 -4.511597570723509)"><path d="M-0.3 -0.04 C-65.05 -1.23, -310.36 -7.86, -387.39 -7.75 C-464.41 -7.64, -449.99 -0.65, -462.45 0.62 M1.74 -1.11 C-63.22 -2.61, -310.59 -9.59, -388.12 -9.64 C-465.64 -9.69, -451.12 -3.16, -463.41 -1.41" stroke="#1e1e1e" stroke-width="2" fill="none"></path></g><g transform="translate(1222.5342502291237 165.7902033531455) rotate(0 -230.8342063407457 -4.511597570723509)"><path d="M-444.26 -17.48 C-451.91 -10.55, -458.58 -5.59, -463.41 -1.41 M-444.26 -17.48 C-451.24 -11.26, -456.69 -5.95, -463.41 -1.41" stroke="#1e1e1e" stroke-width="2" fill="none"></path></g><g transform="translate(1222.5342502291237 165.7902033531455) rotate(0 -230.8342063407457 -4.511597570723509)"><path d="M-438.41 -1.41 C-448.26 -0.78, -457.22 -2.1, -463.41 -1.41 M-438.41 -1.41 C-447.43 -0.83, -454.94 -1.14, -463.41 -1.41" stroke="#1e1e1e" stroke-width="2" fill="none"></path></g></g><mask></mask><g stroke-linecap="round"><g transform="translate(1220.0931234056984 143.82838712146818) rotate(0 -312.3312534433264 48.27008449838371)"><path d="M-0.58 -0.75 C-67.28 -5.38, -295.51 -50.41, -399.71 -28.38 C-503.91 -6.35, -588.05 104.71, -625.77 131.42 M1.32 1.47 C-65.61 -3.44, -296.29 -51.84, -400.84 -30.05 C-505.39 -8.26, -588.56 105.08, -625.98 132.2" stroke="#1e1e1e" stroke-width="2" fill="none"></path></g><g transform="translate(1220.0931234056984 143.82838712146818) rotate(0 -312.3312534433264 48.27008449838371)"><path d="M-614.78 109.85 C-619.95 116.8, -621.07 126.74, -625.98 132.2 M-614.78 109.85 C-617.54 115.34, -619.62 120.18, -625.98 132.2" stroke="#1e1e1e" stroke-width="2" fill="none"></path></g><g transform="translate(1220.0931234056984 143.82838712146818) rotate(0 -312.3312534433264 48.27008449838371)"><path d="M-603.03 122.27 C-612.13 124.95, -617.24 130.67, -625.98 132.2 M-603.03 122.27 C-608.4 125.04, -612.99 127.22, -625.98 132.2" stroke="#1e1e1e" stroke-width="2" fill="none"></path></g></g><mask></mask><g stroke-linecap="round" transform="translate(1313.4166040117775 238.93621222178143) rotate(0 111.5 66.49999999999997)"><path d="M32 0 C88.15 -0.95, 145.77 -0.37, 191 0 M32 0 C84.16 -0.76, 134.46 -0.36, 191 0 M191 0 C210.5 0.78, 221.69 11.44, 223 32 M191 0 C213.26 2.27, 221.21 10.58, 223 32 M223 32 C224.63 60.7, 222.24 86.6, 223 101 M223 32 C223.01 48.41, 222.28 63.6, 223 101 M223 101 C221.75 121.75, 210.72 134.89, 191 133 M223 101 C220.92 120.41, 213.76 133.57, 191 133 M191 133 C158.19 133.04, 121.42 136.12, 32 133 M191 133 C138.21 134.4, 87.6 134.34, 32 133 M32 133 C11.81 132.9, -0.38 123.74, 0 101 M32 133 C10.91 134.57, -1.25 122.39, 0 101 M0 101 C-0.86 83.14, -1.41 67.24, 0 32 M0 101 C-0.81 81.29, -0.34 61.41, 0 32 M0 32 C-0.92 10.05, 10.25 -0.61, 32 0 M0 32 C0.9 11.64, 9.9 0.85, 32 0" stroke="#1e1e1e" stroke-width="2" fill="none"></path></g><g transform="translate(1330.7066964800392 292.9362122217814) rotate(0 94.20990753173828 12.5)"><text x="94.20990753173828" y="17.52" font-family="Virgil, Segoe UI Emoji" font-size="20px" fill="#1e1e1e" text-anchor="middle" style="white-space: pre;" direction="ltr" dominant-baseline="alphabetic">_get_next_tuple()</text></g><g stroke-linecap="round" transform="translate(156.92646500420892 449.4199035432605) rotate(0 98.5 40)"><path d="M82.57 0.15 C95.55 -1.26, 112.6 0.42, 126.08 1.98 C139.56 3.53, 152.85 5.72, 163.45 9.49 C174.05 13.26, 184.14 19.22, 189.67 24.59 C195.2 29.95, 197.41 35.88, 196.65 41.7 C195.89 47.51, 191.94 54.32, 185.11 59.49 C178.29 64.66, 167.33 69.3, 155.73 72.7 C144.13 76.1, 129.54 78.82, 115.51 79.9 C101.48 80.97, 85.42 80.9, 71.56 79.16 C57.71 77.41, 43.14 73.35, 32.36 69.44 C21.59 65.53, 12.28 60.99, 6.9 55.67 C1.52 50.36, -0.87 43.49, 0.07 37.55 C1.01 31.62, 5.66 25.01, 12.53 20.08 C19.41 15.16, 27.61 11.4, 41.32 8.02 C55.03 4.63, 83.36 1.07, 94.78 -0.23 C106.21 -1.53, 109.67 -0.59, 109.88 0.21 M110.96 1.64 C124.78 1.52, 140.56 3.77, 152.43 6.44 C164.29 9.12, 174.57 12.57, 182.16 17.66 C189.74 22.75, 196.33 30.81, 197.93 37 C199.53 43.2, 196.89 49.82, 191.75 54.84 C186.62 59.85, 177.16 63.35, 167.11 67.11 C157.06 70.88, 144.65 75.13, 131.45 77.41 C118.26 79.69, 102.4 81.28, 87.95 80.81 C73.49 80.34, 56.91 78.12, 44.72 74.59 C32.54 71.06, 22.07 64.64, 14.83 59.61 C7.6 54.57, 2.68 49.66, 1.33 44.38 C-0.02 39.09, 2.27 33.24, 6.75 27.89 C11.23 22.53, 18.44 16.34, 28.21 12.25 C37.98 8.16, 51.57 5.46, 65.35 3.33 C79.14 1.19, 103.58 -0.36, 110.91 -0.56 C118.24 -0.75, 109.56 1.27, 109.34 2.15" stroke="#1e1e1e" stroke-width="2" fill="none"></path></g><g transform="translate(193.72651267012702 477.1356322957986) rotate(0 61.54993438720703 12.5)"><text x="61.54993438720703" y="17.52" font-family="Virgil, Segoe UI Emoji" font-size="20px" fill="#1e1e1e" text-anchor="middle" style="white-space: pre;" direction="ltr" dominant-baseline="alphabetic">prio_counter</text></g><g stroke-linecap="round" transform="translate(1028.926465004209 337.9754590988159) rotate(0 133.50000000000006 85)"><path d="M167.5 21.5 C193.76 39.15, 217.69 55.43, 233.5 64.5 M167.5 21.5 C186.47 34.46, 207.24 47.14, 233.5 64.5 M233.5 64.5 C268.49 86.32, 268.63 86.74, 233.5 107.5 M233.5 64.5 C268.84 83.94, 268.39 85.2, 233.5 107.5 M233.5 107.5 C208.19 122.48, 186.17 137.09, 167.5 148.5 M233.5 107.5 C219.17 117.02, 203.57 125.19, 167.5 148.5 M167.5 148.5 C133.6 171.58, 133.42 169.1, 100.5 148.5 M167.5 148.5 C133.93 172.04, 134.98 171.89, 100.5 148.5 M100.5 148.5 C74.82 133.23, 49.39 117.91, 33.5 107.5 M100.5 148.5 C82.37 136.22, 63.87 125.1, 33.5 107.5 M33.5 107.5 C1.42 85.34, 1.08 85.96, 33.5 64.5 M33.5 107.5 C-0.08 85.22, 1.52 85.08, 33.5 64.5 M33.5 64.5 C51.73 53.1, 71.7 39.87, 100.5 21.5 M33.5 64.5 C50.6 54.59, 66.05 43.29, 100.5 21.5 M100.5 21.5 C135.18 -1.09, 135.04 -1.2, 167.5 21.5 M100.5 21.5 C135.69 -0.85, 135.4 0.05, 167.5 21.5" stroke="#1e1e1e" stroke-width="2" fill="none"></path></g><g transform="translate(1101.1265306170021 385.4754590988159) rotate(0 61.54993438720703 37.5)"><text x="61.54993438720703" y="17.52" font-family="Virgil, Segoe UI Emoji" font-size="20px" fill="#1e1e1e" text-anchor="middle" style="white-space: pre;" direction="ltr" dominant-baseline="alphabetic">prio_q and</text><text x="61.54993438720703" y="42.519999999999996" font-family="Virgil, Segoe UI Emoji" font-size="20px" fill="#1e1e1e" text-anchor="middle" style="white-space: pre;" direction="ltr" dominant-baseline="alphabetic">prio_counter</text><text x="61.54993438720703" y="67.52" font-family="Virgil, Segoe UI Emoji" font-size="20px" fill="#1e1e1e" text-anchor="middle" style="white-space: pre;" direction="ltr" dominant-baseline="alphabetic">&lt; 5?</text></g><g stroke-linecap="round"><g transform="translate(1306.9656753237282 337.1129998426221) rotate(0 -42.43074069248553 13.69878584768881)"><path d="M-0.39 1.01 C-14.63 5.48, -71.4 22.92, -85.3 26.9 M1.61 0.5 C-12.84 4.62, -72.2 21.04, -86.47 25.22" stroke="#1e1e1e" stroke-width="2" fill="none"></path></g><g transform="translate(1306.9656753237282 337.1129998426221) rotate(0 -42.43074069248553 13.69878584768881)"><path d="M-66.2 10.59 C-70.83 14.38, -77.43 21.41, -86.47 25.22 M-66.2 10.59 C-69.98 13.12, -74.9 16.35, -86.47 25.22" stroke="#1e1e1e" stroke-width="2" fill="none"></path></g><g transform="translate(1306.9656753237282 337.1129998426221) rotate(0 -42.43074069248553 13.69878584768881)"><path d="M-61.54 27.04 C-67.63 25.68, -75.69 27.58, -86.47 25.22 M-61.54 27.04 C-66.19 26.27, -72.06 26.16, -86.47 25.22" stroke="#1e1e1e" stroke-width="2" fill="none"></path></g></g><mask></mask><g stroke-linecap="round" transform="translate(1302.7401199038063 537.4765333599514) rotate(0 113.33333333333326 36.66666666666663)"><path d="M18.33 0 C92.55 0.99, 164.75 0.04, 208.33 0 M18.33 0 C89.82 -2.37, 162.3 -1.96, 208.33 0 M208.33 0 C219.93 -1.86, 224.89 4.5, 226.67 18.33 M208.33 0 C219.21 0.57, 224.48 7.53, 226.67 18.33 M226.67 18.33 C226.45 32.68, 225.45 46.2, 226.67 55 M226.67 18.33 C226.46 25.19, 227.56 32.67, 226.67 55 M226.67 55 C227.7 66.22, 222.25 72.9, 208.33 73.33 M226.67 55 C225.87 67.81, 221.17 75.06, 208.33 73.33 M208.33 73.33 C143.23 72.36, 74.7 70.78, 18.33 73.33 M208.33 73.33 C138.89 74.31, 68.35 72.38, 18.33 73.33 M18.33 73.33 C5.69 73.98, 0.08 68.13, 0 55 M18.33 73.33 C7.26 71.83, -1.2 67.6, 0 55 M0 55 C-0.88 43.48, 0.95 31.67, 0 18.33 M0 55 C-1.15 44.13, 0.42 35.42, 0 18.33 M0 18.33 C0.01 5.84, 4.92 -1.74, 18.33 0 M0 18.33 C0.54 5.37, 5.93 -0.3, 18.33 0" stroke="#1e1e1e" stroke-width="2" fill="none"></path></g><g transform="translate(1385.0634892478818 561.643200026618) rotate(0 31.009963989257812 12.5)"><text x="31.009963989257812" y="17.52" font-family="Virgil, Segoe UI Emoji" font-size="20px" fill="#1e1e1e" text-anchor="middle" style="white-space: pre;" direction="ltr" dominant-baseline="alphabetic">train()</text></g><g stroke-linecap="round"><g transform="translate(1503.6877308701519 524.143200026618) rotate(0 -1.460421323348669 -74.1046324169206)"><path d="M1.12 0.03 C0.6 -24.3, -3.25 -122.18, -4.04 -146.69 M0.25 -0.99 C0.16 -25.58, -1.71 -123.58, -1.94 -148.24" stroke="#1e1e1e" stroke-width="2" fill="none"></path></g><g transform="translate(1503.6877308701519 524.143200026618) rotate(0 -1.460421323348669 -74.1046324169206)"><path d="M6.95 -124.88 C5.17 -131.93, 4.95 -136.44, -1.94 -148.24 M6.95 -124.88 C4.11 -134.22, -0.08 -141.18, -1.94 -148.24" stroke="#1e1e1e" stroke-width="2" fill="none"></path></g><g transform="translate(1503.6877308701519 524.143200026618) rotate(0 -1.460421323348669 -74.1046324169206)"><path d="M-10.14 -124.63 C-8.13 -131.89, -4.55 -136.46, -1.94 -148.24 M-10.14 -124.63 C-6.78 -134.06, -4.76 -141.11, -1.94 -148.24" stroke="#1e1e1e" stroke-width="2" fill="none"></path></g></g><mask></mask><g stroke-linecap="round" transform="translate(1165.7358006068634 654.143200026618) rotate(0 123.88888888888891 60)"><path d="M30 0 C76.26 -2.31, 122.3 -3.07, 217.78 0 M30 0 C78.36 -0.65, 129.46 -1.32, 217.78 0 M217.78 0 C238.71 1.88, 249.62 9.44, 247.78 30 M217.78 0 C238.99 1.57, 247.92 8.02, 247.78 30 M247.78 30 C246.37 48.87, 247.64 65.89, 247.78 90 M247.78 30 C248.06 46.21, 248.43 60.86, 247.78 90 M247.78 90 C249.12 111.18, 238.89 121.02, 217.78 120 M247.78 90 C246.17 108.88, 235.62 119.67, 217.78 120 M217.78 120 C161.12 118.68, 105.83 117.62, 30 120 M217.78 120 C157.61 119.05, 96.71 119.98, 30 120 M30 120 C9.27 118.31, 1.35 110.89, 0 90 M30 120 C9.8 118.93, 2.26 108.87, 0 90 M0 90 C0.56 71.66, -0.5 55.37, 0 30 M0 90 C0.26 77.04, 0.35 64.94, 0 30 M0 30 C0.2 10.92, 11.44 0.93, 30 0 M0 30 C-0.29 8.67, 11.86 -2.02, 30 0" stroke="#1e1e1e" stroke-width="2" fill="none"></path></g><g transform="translate(1195.4747871520024 701.643200026618) rotate(0 94.14990234375 12.5)"><text x="94.14990234375" y="17.52" font-family="Virgil, Segoe UI Emoji" font-size="20px" fill="#1e1e1e" text-anchor="middle" style="white-space: pre;" direction="ltr" dominant-baseline="alphabetic">_compile_and_fit()</text></g><g stroke-linecap="round"><g transform="translate(1301.6290087926952 589.378459380936) rotate(0 -37.41542303256688 27.491751654405448)"><path d="M0.95 -0.03 C-11.74 9.25, -63.13 45.6, -75.78 55 M-0.01 -1.1 C-12.37 8.37, -60.98 46.85, -73.62 56.08" stroke="#1e1e1e" stroke-width="2" fill="none"></path></g><g transform="translate(1301.6290087926952 589.378459380936) rotate(0 -37.41542303256688 27.491751654405448)"><path d="M-60.15 35.02 C-64.78 40.33, -70.62 48.64, -73.62 56.08 M-60.15 35.02 C-64.46 41.53, -68.78 49.79, -73.62 56.08" stroke="#1e1e1e" stroke-width="2" fill="none"></path></g><g transform="translate(1301.6290087926952 589.378459380936) rotate(0 -37.41542303256688 27.491751654405448)"><path d="M-49.76 48.61 C-57.74 49.51, -67.01 53.34, -73.62 56.08 M-49.76 48.61 C-57.61 50.57, -65.48 54.19, -73.62 56.08" stroke="#1e1e1e" stroke-width="2" fill="none"></path></g></g><mask></mask><g stroke-linecap="round"><g transform="translate(1159.7504298441645 708.2169860818835) rotate(0 -257.3105116778913 -35.55326894669918)"><path d="M0.27 0.53 C-85.48 -11.31, -429.25 -59.88, -514.89 -71.63 M-1.05 -0.24 C-86.37 -11.87, -427.08 -58.49, -512.58 -70.41" stroke="#1e1e1e" stroke-width="2" fill="none"></path></g><g transform="translate(1159.7504298441645 708.2169860818835) rotate(0 -257.3105116778913 -35.55326894669918)"><path d="M-488.14 -75.67 C-493.78 -75.5, -502.15 -71.95, -512.58 -70.41 M-488.14 -75.67 C-497.59 -73.86, -506.32 -72.39, -512.58 -70.41" stroke="#1e1e1e" stroke-width="2" fill="none"></path></g><g transform="translate(1159.7504298441645 708.2169860818835) rotate(0 -257.3105116778913 -35.55326894669918)"><path d="M-490.48 -58.73 C-495.41 -63.06, -503.15 -64.01, -512.58 -70.41 M-490.48 -58.73 C-498.93 -63.45, -506.75 -68.53, -512.58 -70.41" stroke="#1e1e1e" stroke-width="2" fill="none"></path></g></g><mask></mask><g transform="translate(800.1802450513078 539.6987555821734) rotate(0 226.27976989746088 37.5)"><text x="0" y="17.52" font-family="Virgil, Segoe UI Emoji" font-size="20px" fill="#1e1e1e" text-anchor="start" style="white-space: pre;" direction="ltr" dominant-baseline="alphabetic">*train retrieves model instance from tuple,</text><text x="0" y="42.519999999999996" font-family="Virgil, Segoe UI Emoji" font-size="20px" fill="#1e1e1e" text-anchor="start" style="white-space: pre;" direction="ltr" dominant-baseline="alphabetic">calls _compile_and_fit with it and its window</text><text x="0" y="67.52" font-family="Virgil, Segoe UI Emoji" font-size="20px" fill="#1e1e1e" text-anchor="start" style="white-space: pre;" direction="ltr" dominant-baseline="alphabetic">and saves trained_model</text></g><g stroke-linecap="round"><g transform="translate(1347.9580228290856 383.0320889155069) rotate(0 -286.7735290473285 65.0874350923711)"><path d="M1.13 0.06 C-9.13 21.26, 34.52 115.01, -61.74 127.7 C-158 140.39, -490.59 84.78, -576.42 76.21 M0.27 -0.95 C-9.58 20.41, 36.34 116.2, -59.36 129.2 C-155.06 142.19, -487.67 85.74, -573.94 77.02" stroke="#1e1e1e" stroke-width="2" fill="none"></path></g><g transform="translate(1347.9580228290856 383.0320889155069) rotate(0 -286.7735290473285 65.0874350923711)"><path d="M-549.52 71.67 C-556.37 72.38, -563.58 73.63, -573.94 77.02 M-549.52 71.67 C-555.71 73.16, -561.23 73.3, -573.94 77.02" stroke="#1e1e1e" stroke-width="2" fill="none"></path></g><g transform="translate(1347.9580228290856 383.0320889155069) rotate(0 -286.7735290473285 65.0874350923711)"><path d="M-551.79 88.62 C-558.06 84.47, -564.62 80.87, -573.94 77.02 M-551.79 88.62 C-557.33 86.4, -562.35 82.81, -573.94 77.02" stroke="#1e1e1e" stroke-width="2" fill="none"></path></g></g><mask></mask><g stroke-linecap="round" transform="translate(1007.3262888287738 800.167108217875) rotate(0 96.66666666666674 42.777777777777715)"><path d="M21.39 0 C54.2 2.34, 88.23 2.44, 171.94 0 M21.39 0 C62.78 -0.94, 105.59 0.23, 171.94 0 M171.94 0 C185.82 0.66, 193.66 7.88, 193.33 21.39 M171.94 0 C186.08 -2.25, 192.02 8.54, 193.33 21.39 M193.33 21.39 C191.15 29.82, 191.24 43.12, 193.33 64.17 M193.33 21.39 C192.54 36.79, 193.56 53.84, 193.33 64.17 M193.33 64.17 C192.61 77.75, 185.21 83.64, 171.94 85.56 M193.33 64.17 C193.76 78.24, 184.54 85.58, 171.94 85.56 M171.94 85.56 C118.86 85.69, 69.08 85.3, 21.39 85.56 M171.94 85.56 C140.4 83.43, 107.48 84.74, 21.39 85.56 M21.39 85.56 C5.45 85.51, 1.52 77.37, 0 64.17 M21.39 85.56 C8.29 87.83, -1.86 77.81, 0 64.17 M0 64.17 C1.36 54.09, -1.36 44.1, 0 21.39 M0 64.17 C-1.05 49, -0.48 35.35, 0 21.39 M0 21.39 C-1.94 6.52, 5.28 1.6, 21.39 0 M0 21.39 C-1.93 5.85, 5.2 1.03, 21.39 0" stroke="#1e1e1e" stroke-width="2" fill="none"></path></g><g transform="translate(1052.9930165305968 830.4448859956527) rotate(0 50.99993896484375 12.5)"><text x="50.99993896484375" y="17.52" font-family="Virgil, Segoe UI Emoji" font-size="20px" fill="#1e1e1e" text-anchor="middle" style="white-space: pre;" direction="ltr" dominant-baseline="alphabetic">evaluate()</text></g><g stroke-linecap="round"><g transform="translate(1002.8818443843293 831.2782193289862) rotate(0 -304.635187497037 -109.73405877978638)"><path d="M-0.17 -0.7 C-87.37 -27.19, -421.21 -122.28, -522.7 -158.99 C-624.19 -195.71, -594.85 -210.61, -609.1 -221.01 M-1.71 1.54 C-89.15 -25.26, -423.08 -123.73, -523.91 -160.59 C-624.74 -197.44, -592.68 -209.61, -606.69 -219.59" stroke="#1e1e1e" stroke-width="2" fill="none"></path></g><g transform="translate(1002.8818443843293 831.2782193289862) rotate(0 -304.635187497037 -109.73405877978638)"><path d="M-588.65 -202.28 C-595.96 -209, -599.26 -215.63, -606.69 -219.59 M-588.65 -202.28 C-594.86 -208, -599.22 -212.48, -606.69 -219.59" stroke="#1e1e1e" stroke-width="2" fill="none"></path></g><g transform="translate(1002.8818443843293 831.2782193289862) rotate(0 -304.635187497037 -109.73405877978638)"><path d="M-604 -194.73 C-606.08 -204, -604.15 -213.2, -606.69 -219.59 M-604 -194.73 C-605.34 -202.82, -604.83 -209.69, -606.69 -219.59" stroke="#1e1e1e" stroke-width="2" fill="none"></path></g></g><mask></mask><g stroke-linecap="round" transform="translate(537.4896807897653 799.350085894267) rotate(0 77.77777777777783 42.777777777777715)"><path d="M21.39 0 C66.77 0.07, 112.25 -0.27, 134.17 0 M21.39 0 C58 1.1, 92.9 0.98, 134.17 0 M134.17 0 C148.8 0.34, 157.38 7.02, 155.56 21.39 M134.17 0 C148.75 1.76, 155.55 6.07, 155.56 21.39 M155.56 21.39 C156.42 31.48, 153.78 43.04, 155.56 64.17 M155.56 21.39 C154.86 36.57, 156.45 50.25, 155.56 64.17 M155.56 64.17 C156.13 79.7, 149.79 84.16, 134.17 85.56 M155.56 64.17 C155.34 77.53, 148.03 83.37, 134.17 85.56 M134.17 85.56 C105.8 84.34, 79.85 84.38, 21.39 85.56 M134.17 85.56 C91.41 84.15, 49.51 84.41, 21.39 85.56 M21.39 85.56 C5.89 87.29, 1.08 79.87, 0 64.17 M21.39 85.56 C8.51 86.73, -1.61 78.82, 0 64.17 M0 64.17 C-1.52 50.48, 2.37 39.77, 0 21.39 M0 64.17 C-0.27 50.56, 0.04 38.44, 0 21.39 M0 21.39 C0.32 8.22, 5.65 -0.76, 21.39 0 M0 21.39 C1.05 5.38, 5.91 -0.8, 21.39 0" stroke="#1e1e1e" stroke-width="2" fill="none"></path></g><g transform="translate(551.0175272320939 829.6278636720447) rotate(0 64.24993133544922 12.5)"><text x="64.24993133544922" y="17.52" font-family="Virgil, Segoe UI Emoji" font-size="20px" fill="#1e1e1e" text-anchor="middle" style="white-space: pre;" direction="ltr" dominant-baseline="alphabetic">save_model()</text></g><g stroke-linecap="round" transform="translate(811.9341252342101 932.6834192276001) rotate(0 92.77777777777777 40.00000000000006)"><path d="M20 0 C57.75 -1.25, 91.82 1.18, 165.56 0 M20 0 C74.01 -0.84, 127.76 -1.06, 165.56 0 M165.56 0 C178.53 1.79, 186.78 8.2, 185.56 20 M165.56 0 C178.64 -0.48, 184.77 6.4, 185.56 20 M185.56 20 C185.3 33.52, 187.1 52.62, 185.56 60 M185.56 20 C184.97 35.73, 184.74 49.65, 185.56 60 M185.56 60 C186.74 73.75, 180.63 80.69, 165.56 80 M185.56 60 C186.15 72.36, 177.14 79.17, 165.56 80 M165.56 80 C127.45 78.35, 87.87 78.01, 20 80 M165.56 80 C132.68 80.54, 99.65 79.56, 20 80 M20 80 C6.71 80.37, -1.38 74.02, 0 60 M20 80 C7.41 82.22, 0.35 72.18, 0 60 M0 60 C-2.21 49.5, 0.75 37.5, 0 20 M0 60 C-0.93 45.11, -0.92 31.77, 0 20 M0 20 C-1.47 8.02, 6.52 -0.86, 20 0 M0 20 C0.67 7.54, 7.12 0.25, 20 0" stroke="#1e1e1e" stroke-width="2" fill="none"></path></g><g transform="translate(823.1919979216559 960.1834192276002) rotate(0 81.51990509033203 12.5)"><text x="81.51990509033203" y="17.52" font-family="Virgil, Segoe UI Emoji" font-size="20px" fill="#1e1e1e" text-anchor="middle" style="white-space: pre;" direction="ltr" dominant-baseline="alphabetic">serialize_model()</text></g><g stroke-linecap="round" transform="translate(349.71190301198783 949.3500858942667) rotate(0 108.33333333333334 47.222222222222285)"><path d="M23.61 0 C67.65 -1.76, 110.88 -1.52, 193.06 0 M23.61 0 C83.83 0.04, 144.28 -0.02, 193.06 0 M193.06 0 C208.33 -1.6, 216.86 8.84, 216.67 23.61 M193.06 0 C208 1.71, 214.63 8.82, 216.67 23.61 M216.67 23.61 C216.58 38.96, 216.75 57.08, 216.67 70.83 M216.67 23.61 C216.94 40.28, 216.75 55.26, 216.67 70.83 M216.67 70.83 C215.32 86.79, 209.41 96.4, 193.06 94.44 M216.67 70.83 C215.21 85.99, 207.68 92.67, 193.06 94.44 M193.06 94.44 C126.7 94.03, 60.8 93.28, 23.61 94.44 M193.06 94.44 C146.45 93.92, 100.12 93.73, 23.61 94.44 M23.61 94.44 C9.68 93.36, -0.16 86.64, 0 70.83 M23.61 94.44 C9.75 94.6, 1.83 88.54, 0 70.83 M0 70.83 C-0.16 56.42, -0.49 43.14, 0 23.61 M0 70.83 C-0.14 57.4, 0.1 42.12, 0 23.61 M0 23.61 C1.8 6.77, 9.49 -0.86, 23.61 0 M0 23.61 C-0.07 9.48, 7.07 1.72, 23.61 0" stroke="#1e1e1e" stroke-width="2" fill="none"></path></g><g transform="translate(361.0453278980555 984.0723081164891) rotate(0 96.99990844726562 12.5)"><text x="96.99990844726562" y="17.52" font-family="Virgil, Segoe UI Emoji" font-size="20px" fill="#1e1e1e" text-anchor="middle" style="white-space: pre;" direction="ltr" dominant-baseline="alphabetic">_save_new_model()</text></g><g stroke-linecap="round"><g transform="translate(599.0039238097174 646.6703649097011) rotate(0 204.39929697033432 75.07248342881911)"><path d="M-0.9 0.33 C67.58 25.1, 341.37 124.34, 409.7 149.45 M0.83 -0.55 C69.33 24.32, 341.25 125.74, 409.17 150.69" stroke="#1e1e1e" stroke-width="2" fill="none"></path></g><g transform="translate(599.0039238097174 646.6703649097011) rotate(0 204.39929697033432 75.07248342881911)"><path d="M384.17 150.55 C389.73 152.11, 393.27 151.08, 409.17 150.69 M384.17 150.55 C393.44 151.02, 402.47 150.67, 409.17 150.69" stroke="#1e1e1e" stroke-width="2" fill="none"></path></g><g transform="translate(599.0039238097174 646.6703649097011) rotate(0 204.39929697033432 75.07248342881911)"><path d="M390.11 134.52 C394.58 139.25, 396.94 141.43, 409.17 150.69 M390.11 134.52 C397.07 141.08, 403.83 146.85, 409.17 150.69" stroke="#1e1e1e" stroke-width="2" fill="none"></path></g></g><mask></mask><g stroke-linecap="round"><g transform="translate(572.3372571430507 658.8925871319233) rotate(0 5.288804052420858 70.10558523837375)"><path d="M1.02 1.09 C2.61 24.14, 9.07 115.15, 10.48 137.96 M0.09 0.62 C1.5 23.92, 8.39 116.46, 9.79 139.59" stroke="#1e1e1e" stroke-width="2" fill="none"></path></g><g transform="translate(572.3372571430507 658.8925871319233) rotate(0 5.288804052420858 70.10558523837375)"><path d="M-0.34 116.74 C5.22 126.04, 7.51 132.98, 9.79 139.59 M-0.34 116.74 C3.19 124.84, 5.53 131.12, 9.79 139.59" stroke="#1e1e1e" stroke-width="2" fill="none"></path></g><g transform="translate(572.3372571430507 658.8925871319233) rotate(0 5.288804052420858 70.10558523837375)"><path d="M16.72 115.57 C15.87 125.46, 11.75 132.83, 9.79 139.59 M16.72 115.57 C14.87 123.99, 11.83 130.64, 9.79 139.59" stroke="#1e1e1e" stroke-width="2" fill="none"></path></g></g><mask></mask><g stroke-linecap="round"><g transform="translate(694.5594793652731 878.870676994323) rotate(0 58.36561643232892 30.465767614035883)"><path d="M-0.62 0.96 C19.02 11.07, 97.75 50.59, 117.35 60.52 M1.25 0.41 C20.83 10.18, 97.58 48.99, 116.76 58.67" stroke="#1e1e1e" stroke-width="2" fill="none"></path></g><g transform="translate(694.5594793652731 878.870676994323) rotate(0 58.36561643232892 30.465767614035883)"><path d="M91.94 55.71 C100 57.75, 105.75 57.88, 116.76 58.67 M91.94 55.71 C100.06 56.72, 109.07 57.38, 116.76 58.67" stroke="#1e1e1e" stroke-width="2" fill="none"></path></g><g transform="translate(694.5594793652731 878.870676994323) rotate(0 58.36561643232892 30.465767614035883)"><path d="M99.65 40.45 C105.68 46.43, 109.42 50.54, 116.76 58.67 M99.65 40.45 C105.22 46.75, 111.58 52.66, 116.76 58.67" stroke="#1e1e1e" stroke-width="2" fill="none"></path></g></g><mask></mask><g stroke-linecap="round" transform="translate(264.4007492065428 669.9817881054341) rotate(0 122.77777777777777 110)"><path d="M153.75 27.75 C177.41 48.85, 201.87 72.4, 214.81 83.25 M153.75 27.75 C167.08 40.84, 179.61 52.74, 214.81 83.25 M214.81 83.25 C246.97 111.66, 245.83 111.48, 214.81 138.75 M214.81 83.25 C244.44 109.78, 243.99 109.89, 214.81 138.75 M214.81 138.75 C198.89 154.69, 179.3 169.54, 153.75 192.25 M214.81 138.75 C192.48 159.42, 169.25 180.23, 153.75 192.25 M153.75 192.25 C122.28 221.07, 121.02 219.12, 92.25 192.25 M153.75 192.25 C123.63 218.15, 123.02 218.05, 92.25 192.25 M92.25 192.25 C78.59 180.78, 67.68 171.2, 30.75 138.75 M92.25 192.25 C73.87 177.53, 56.97 160.76, 30.75 138.75 M30.75 138.75 C-1.71 110.02, -0.17 109.02, 30.75 83.25 M30.75 138.75 C0.91 110.97, -1.37 111.52, 30.75 83.25 M30.75 83.25 C51.79 63.19, 73.4 44.56, 92.25 27.75 M30.75 83.25 C49.16 67.12, 65.68 51.48, 92.25 27.75 M92.25 27.75 C124.73 -0.41, 122.93 -1.01, 153.75 27.75 M92.25 27.75 C122.61 -0.63, 122.18 0.51, 153.75 27.75" stroke="#1e1e1e" stroke-width="2" fill="none"></path></g><g transform="translate(332.62969546847853 729.9817881054341) rotate(0 54.659942626953125 50)"><text x="54.659942626953125" y="17.52" font-family="Virgil, Segoe UI Emoji" font-size="20px" fill="#1e1e1e" text-anchor="middle" style="white-space: pre;" direction="ltr" dominant-baseline="alphabetic">is </text><text x="54.659942626953125" y="42.519999999999996" font-family="Virgil, Segoe UI Emoji" font-size="20px" fill="#1e1e1e" text-anchor="middle" style="white-space: pre;" direction="ltr" dominant-baseline="alphabetic">model_type</text><text x="54.659942626953125" y="67.52" font-family="Virgil, Segoe UI Emoji" font-size="20px" fill="#1e1e1e" text-anchor="middle" style="white-space: pre;" direction="ltr" dominant-baseline="alphabetic">stored in </text><text x="54.659942626953125" y="92.52" font-family="Virgil, Segoe UI Emoji" font-size="20px" fill="#1e1e1e" text-anchor="middle" style="white-space: pre;" direction="ltr" dominant-baseline="alphabetic">db?</text></g><g stroke-linecap="round"><g transform="translate(552.8425980238412 892.2040103276564) rotate(0 -31.331768139984604 26.027946069008806)"><path d="M1.02 -0.87 C-9.44 8.11, -53.13 44.08, -63.69 52.92 M0.1 1.29 C-9.94 10, -51.05 42.47, -61.57 51.17" stroke="#1e1e1e" stroke-width="2" fill="none"></path></g><g transform="translate(552.8425980238412 892.2040103276564) rotate(0 -31.331768139984604 26.027946069008806)"><path d="M-48.66 29.76 C-53.18 32.82, -53.49 39.9, -61.57 51.17 M-48.66 29.76 C-51.87 36.62, -56.9 43.08, -61.57 51.17" stroke="#1e1e1e" stroke-width="2" fill="none"></path></g><g transform="translate(552.8425980238412 892.2040103276564) rotate(0 -31.331768139984604 26.027946069008806)"><path d="M-37.92 43.07 C-44.77 43.21, -47.5 47.28, -61.57 51.17 M-37.92 43.07 C-44.33 46.06, -52.56 48.56, -61.57 51.17" stroke="#1e1e1e" stroke-width="2" fill="none"></path></g></g><mask></mask><g stroke-linecap="round" transform="translate(10 704.603687271239) rotate(0 74.44444444444446 50.55555555555554)"><path d="M25.28 0 C54.14 2.19, 84.55 0.37, 123.61 0 M25.28 0 C54.7 -0.32, 85.47 -0.7, 123.61 0 M123.61 0 C139.42 -0.21, 149.82 7.17, 148.89 25.28 M123.61 0 C140.3 0.76, 149.45 9.13, 148.89 25.28 M148.89 25.28 C149.73 42.54, 150.48 64.56, 148.89 75.83 M148.89 25.28 C148.76 44.21, 148.12 62.7, 148.89 75.83 M148.89 75.83 C148.16 94.37, 141.67 100.17, 123.61 101.11 M148.89 75.83 C150.72 91.56, 138.32 101.44, 123.61 101.11 M123.61 101.11 C97.28 99.77, 73.82 101.42, 25.28 101.11 M123.61 101.11 C87.19 100.45, 48.97 100.31, 25.28 101.11 M25.28 101.11 C9.98 100.99, 1.26 93.1, 0 75.83 M25.28 101.11 C9.44 98.86, -0.72 91.4, 0 75.83 M0 75.83 C0.79 61.31, 1.22 50.11, 0 25.28 M0 75.83 C-0.59 62.21, -0.37 49.46, 0 25.28 M0 25.28 C-1.61 8.22, 7.75 -1.8, 25.28 0 M0 25.28 C0.46 8.8, 6.16 -0.64, 25.28 0" stroke="#1e1e1e" stroke-width="2" fill="none"></path></g><g transform="translate(17.924516465928832 717.6592428267945) rotate(0 66.51992797851562 37.5)"><text x="66.51992797851562" y="17.52" font-family="Virgil, Segoe UI Emoji" font-size="20px" fill="#1e1e1e" text-anchor="middle" style="white-space: pre;" direction="ltr" dominant-baseline="alphabetic">store new </text><text x="66.51992797851562" y="42.519999999999996" font-family="Virgil, Segoe UI Emoji" font-size="20px" fill="#1e1e1e" text-anchor="middle" style="white-space: pre;" direction="ltr" dominant-baseline="alphabetic">model_type in</text><text x="66.51992797851562" y="67.52" font-family="Virgil, Segoe UI Emoji" font-size="20px" fill="#1e1e1e" text-anchor="middle" style="white-space: pre;" direction="ltr" dominant-baseline="alphabetic">db</text></g><g mask="url(#mask-vLv94TKGoWW_w7DHdJzur)" stroke-linecap="round"><g transform="translate(267.5525043247076 764.7085541141319) rotate(0 -49.247389351293265 0.5500803119987268)"><path d="M0.8 -0.04 C-15.67 0.24, -82.04 1.83, -98.84 2.22 M-0.23 -1.11 C-16.79 -1.23, -82.52 0.18, -99.3 0.41" stroke="#1e1e1e" stroke-width="2" fill="none"></path></g><g transform="translate(267.5525043247076 764.7085541141319) rotate(0 -49.247389351293265 0.5500803119987268)"><path d="M-75.96 -8.55 C-83.04 -4.13, -89.01 -3.39, -99.3 0.41 M-75.96 -8.55 C-84.79 -5.08, -91.79 -2.63, -99.3 0.41" stroke="#1e1e1e" stroke-width="2" fill="none"></path></g><g transform="translate(267.5525043247076 764.7085541141319) rotate(0 -49.247389351293265 0.5500803119987268)"><path d="M-75.66 8.55 C-82.91 7.8, -88.96 3.38, -99.3 0.41 M-75.66 8.55 C-84.59 5.93, -91.7 2.3, -99.3 0.41" stroke="#1e1e1e" stroke-width="2" fill="none"></path></g></g><mask id="mask-vLv94TKGoWW_w7DHdJzur"><rect x="0" y="0" fill="#fff" width="467.3272308716374" height="866.3175015228529"></rect><rect x="205.68515295309817" y="753.0130278184923" fill="#000" width="23.959976196289062" height="25" opacity="1"></rect></mask><g transform="translate(205.6851529530982 753.0130278184922) rotate(0 12.619962020316166 12.245606607638251)"><text x="11.979988098144531" y="17.52" font-family="Virgil, Segoe UI Emoji" font-size="20px" fill="#1e1e1e" text-anchor="middle" style="white-space: pre;" direction="ltr" dominant-baseline="alphabetic">No</text></g><g stroke-linecap="round"><g transform="translate(415.96766846087706 939.7969130410089) rotate(0 -0.9554511308026008 -35.9448704348103)"><path d="M0 -0.63 C-0.33 -12.58, -1.02 -59.82, -1.15 -71.64 M-1.45 1.66 C-1.99 -10.67, -1.94 -60.99, -1.88 -73.55" stroke="#1e1e1e" stroke-width="2" fill="none"></path></g><g transform="translate(415.96766846087706 939.7969130410089) rotate(0 -0.9554511308026008 -35.9448704348103)"><path d="M6.63 -50.04 C2.4 -58.11, 0.97 -66.24, -1.88 -73.55 M6.63 -50.04 C3.19 -58.68, 0.28 -65.51, -1.88 -73.55" stroke="#1e1e1e" stroke-width="2" fill="none"></path></g><g transform="translate(415.96766846087706 939.7969130410089) rotate(0 -0.9554511308026008 -35.9448704348103)"><path d="M-10.47 -50.07 C-8.33 -58.12, -3.39 -66.24, -1.88 -73.55 M-10.47 -50.07 C-8.09 -58.85, -5.18 -65.67, -1.88 -73.55" stroke="#1e1e1e" stroke-width="2" fill="none"></path></g></g><mask></mask><g mask="url(#mask-EbpcznR5jQ_rYoMwbgR7s)" stroke-linecap="round"><g transform="translate(686.7366758414678 321.2428108586204) rotate(0 170.50955295348467 55.381331947321456)"><path d="M0.84 -0.5 C29.89 11.8, 118.45 55.56, 175.17 74.41 C231.9 93.25, 313.56 106.42, 341.2 112.57 M-0.18 -1.81 C29.15 10.59, 120.46 56.92, 177.32 75.63 C234.18 94.34, 313.58 104.4, 340.97 110.45" stroke="#1e1e1e" stroke-width="2" fill="none"></path></g><g transform="translate(686.7366758414678 321.2428108586204) rotate(0 170.50955295348467 55.381331947321456)"><path d="M316.33 114.67 C324.67 111.13, 333.72 113.05, 340.97 110.45 M316.33 114.67 C324.88 112.91, 332.38 112.89, 340.97 110.45" stroke="#1e1e1e" stroke-width="2" fill="none"></path></g><g transform="translate(686.7366758414678 321.2428108586204) rotate(0 170.50955295348467 55.381331947321456)"><path d="M319.38 97.85 C326.67 100.61, 334.58 108.81, 340.97 110.45 M319.38 97.85 C327.03 101.71, 333.5 107.34, 340.97 110.45" stroke="#1e1e1e" stroke-width="2" fill="none"></path></g></g><mask id="mask-EbpcznR5jQ_rYoMwbgR7s"><rect x="0" y="0" fill="#fff" width="1126.9152472700391" height="533.3856680014775"></rect><rect x="846.9266935416631" y="383.7428108586204" fill="#000" width="32.119964599609375" height="25" opacity="1"></rect></mask><g transform="translate(846.9266935416631 383.7428108586204) rotate(0 10.31953525328936 -7.118668052678544)"><text x="16.059982299804688" y="17.52" font-family="Virgil, Segoe UI Emoji" font-size="20px" fill="#1e1e1e" text-anchor="middle" style="white-space: pre;" direction="ltr" dominant-baseline="alphabetic">Yes</text></g><g mask="url(#mask-7rstqtKSOC2Oy_Fx4mNrf)" stroke-linecap="round"><g transform="translate(829.2366758414678 228.74281085862037) rotate(0 154.8624400590826 58.40909197534435)"><path d="M0.8 0.7 C29.19 4.77, 118.53 4.66, 169.67 23.76 C220.81 42.86, 284.28 100.11, 307.65 115.31 M-0.24 0.02 C28.14 4.35, 117.51 5.84, 169.21 25.3 C220.91 44.76, 286.99 101.67, 309.97 116.79" stroke="#1e1e1e" stroke-width="2" fill="none"></path></g><g transform="translate(829.2366758414678 228.74281085862037) rotate(0 154.8624400590826 58.40909197534435)"><path d="M285.99 109.7 C292.94 112.8, 297.59 111.15, 309.97 116.79 M285.99 109.7 C294.38 112.95, 301.37 113.66, 309.97 116.79" stroke="#1e1e1e" stroke-width="2" fill="none"></path></g><g transform="translate(829.2366758414678 228.74281085862037) rotate(0 154.8624400590826 58.40909197534435)"><path d="M296.16 95.95 C300.57 102.45, 302.76 104.13, 309.97 116.79 M296.16 95.95 C301.36 103.68, 305.03 108.87, 309.97 116.79" stroke="#1e1e1e" stroke-width="2" fill="none"></path></g></g><mask id="mask-7rstqtKSOC2Oy_Fx4mNrf"><rect x="0" y="0" fill="#fff" width="1237.9866758414678" height="443.7428108586204"></rect><rect x="986.0066877433233" y="239.99281085862037" fill="#000" width="23.959976196289062" height="25" opacity="1"></rect></mask><g transform="translate(986.0066877433233 239.99281085862037) rotate(0 -1.9075718427728816 47.15909197534435)"><text x="11.979988098144531" y="17.52" font-family="Virgil, Segoe UI Emoji" font-size="20px" fill="#1e1e1e" text-anchor="middle" style="white-space: pre;" direction="ltr" dominant-baseline="alphabetic">No</text></g></svg>